<?xml version="1.0" encoding="UTF-8" standalone="no"?>
<!-- Created with Inkscape (http://www.inkscape.org/) -->

<svg
   width="58.880001"
   height="53.098"
   viewBox="0 0 58.880001 53.098"
   version="1.1"
   id="svg1"
   sodipodi:docname="maisonEconome.svg"
   inkscape:version="1.3 (0e150ed6c4, 2023-07-21)"
   xmlns:inkscape="http://www.inkscape.org/namespaces/inkscape"
   xmlns:sodipodi="http://sodipodi.sourceforge.net/DTD/sodipodi-0.dtd"
   xmlns="http://www.w3.org/2000/svg"
   xmlns:svg="http://www.w3.org/2000/svg">
  <sodipodi:namedview
     id="namedview1"
     pagecolor="#ffffff"
     bordercolor="#000000"
     borderopacity="0.25"
     inkscape:showpageshadow="2"
     inkscape:pageopacity="0.0"
     inkscape:pagecheckerboard="0"
     inkscape:deskcolor="#d1d1d1"
     inkscape:document-units="mm"
     inkscape:zoom="10.34741"
     inkscape:cx="20.246612"
     inkscape:cy="29.379333"
     inkscape:window-width="1680"
     inkscape:window-height="1020"
     inkscape:window-x="2581"
     inkscape:window-y="247"
     inkscape:window-maximized="0"
     inkscape:current-layer="svg1" />
  <defs
     id="defs1">
    <clipPath
       clipPathUnits="userSpaceOnUse"
       id="clipPath292">
      <path
         d="M 0,870.236 H 623.622 V 0 H 0 Z"
         transform="translate(-79.402402,-508.51422)"
         id="path292" />
    </clipPath>
    <clipPath
       clipPathUnits="userSpaceOnUse"
       id="clipPath294">
      <path
         d="M 0,870.236 H 623.622 V 0 H 0 Z"
         transform="translate(-40.134901,-536.37162)"
         id="path294" />
    </clipPath>
    <clipPath
       clipPathUnits="userSpaceOnUse"
       id="clipPath296">
      <path
         d="M 0,870.236 H 623.622 V 0 H 0 Z"
         transform="translate(-65.220202,-527.41092)"
         id="path296" />
    </clipPath>
    <clipPath
       clipPathUnits="userSpaceOnUse"
       id="clipPath298">
      <path
         d="M 0,870.236 H 623.622 V 0 H 0 Z"
         transform="translate(-64.219502,-532.66971)"
         id="path298" />
    </clipPath>
    <clipPath
       clipPathUnits="userSpaceOnUse"
       id="clipPath300">
      <path
         d="M 0,870.236 H 623.622 V 0 H 0 Z"
         transform="translate(-40.134901,-536.37162)"
         id="path300" />
    </clipPath>
    <clipPath
       clipPathUnits="userSpaceOnUse"
       id="clipPath302">
      <path
         d="M 0,870.236 H 623.622 V 0 H 0 Z"
         transform="translate(-60.858202,-520.84851)"
         id="path302" />
    </clipPath>
    <clipPath
       clipPathUnits="userSpaceOnUse"
       id="clipPath304">
      <path
         d="M 0,870.236 H 623.622 V 0 H 0 Z"
         transform="translate(-57.442601,-513.71451)"
         id="path304" />
    </clipPath>
    <clipPath
       clipPathUnits="userSpaceOnUse"
       id="clipPath306">
      <path
         d="M 0,870.236 H 623.622 V 0 H 0 Z"
         transform="translate(-60.879802,-524.01091)"
         id="path306" />
    </clipPath>
    <clipPath
       clipPathUnits="userSpaceOnUse"
       id="clipPath308">
      <path
         d="M 0,870.236 H 623.622 V 0 H 0 Z"
         transform="translate(-69.353902,-507.31662)"
         id="path308" />
    </clipPath>
    <clipPath
       clipPathUnits="userSpaceOnUse"
       id="clipPath310">
      <path
         d="M 0,870.236 H 623.622 V 0 H 0 Z"
         transform="translate(-68.405602,-515.33952)"
         id="path310" />
    </clipPath>
    <clipPath
       clipPathUnits="userSpaceOnUse"
       id="clipPath312">
      <path
         d="M 0,870.236 H 623.622 V 0 H 0 Z"
         transform="translate(-67.368002,-520.59552)"
         id="path312" />
    </clipPath>
    <clipPath
       clipPathUnits="userSpaceOnUse"
       id="clipPath314">
      <path
         d="M 0,870.236 H 623.622 V 0 H 0 Z"
         transform="translate(-66.362602,-523.08801)"
         id="path314" />
    </clipPath>
    <clipPath
       clipPathUnits="userSpaceOnUse"
       id="clipPath316">
      <path
         d="M 0,870.236 H 623.622 V 0 H 0 Z"
         transform="translate(-40.676601,-526.19431)"
         id="path316" />
    </clipPath>
    <clipPath
       clipPathUnits="userSpaceOnUse"
       id="clipPath318">
      <path
         d="M 0,870.236 H 623.622 V 0 H 0 Z"
         transform="translate(-62.726602,-522.15541)"
         id="path318" />
    </clipPath>
    <clipPath
       clipPathUnits="userSpaceOnUse"
       id="clipPath320">
      <path
         d="M 0,870.236 H 623.622 V 0 H 0 Z"
         transform="translate(-42.732601,-540.50421)"
         id="path320" />
    </clipPath>
    <clipPath
       clipPathUnits="userSpaceOnUse"
       id="clipPath322">
      <path
         d="M 0,870.236 H 623.622 V 0 H 0 Z"
         transform="translate(-65.403701,-531.11301)"
         id="path322" />
    </clipPath>
    <clipPath
       clipPathUnits="userSpaceOnUse"
       id="clipPath324">
      <path
         d="M 0,870.236 H 623.622 V 0 H 0 Z"
         transform="translate(-64.437101,-536.37301)"
         id="path324" />
    </clipPath>
    <clipPath
       clipPathUnits="userSpaceOnUse"
       id="clipPath326">
      <path
         d="M 0,870.236 H 623.622 V 0 H 0 Z"
         transform="translate(-48.097401,-517.73382)"
         id="path326" />
    </clipPath>
    <clipPath
       clipPathUnits="userSpaceOnUse"
       id="clipPath328">
      <path
         d="M 0,870.236 H 623.622 V 0 H 0 Z"
         transform="translate(-52.371601,-512.99511)"
         id="path328" />
    </clipPath>
    <clipPath
       clipPathUnits="userSpaceOnUse"
       id="clipPath330">
      <path
         d="M 0,870.236 H 623.622 V 0 H 0 Z"
         transform="translate(-44.049301,-515.67531)"
         id="path330" />
    </clipPath>
    <clipPath
       clipPathUnits="userSpaceOnUse"
       id="clipPath332">
      <path
         d="M 0,870.236 H 623.622 V 0 H 0 Z"
         transform="translate(-44.049301,-515.67531)"
         id="path332" />
    </clipPath>
    <clipPath
       clipPathUnits="userSpaceOnUse"
       id="clipPath62">
      <path
         d="M 0,870.236 H 623.622 V 0 H 0 Z"
         transform="translate(-362.04961,-521.22192)"
         id="path62" />
    </clipPath>
    <clipPath
       clipPathUnits="userSpaceOnUse"
       id="clipPath64">
      <path
         d="M 0,870.236 H 623.622 V 0 H 0 Z"
         transform="translate(-346.73911,-530.60491)"
         id="path64" />
    </clipPath>
    <clipPath
       clipPathUnits="userSpaceOnUse"
       id="clipPath66">
      <path
         d="M 0,870.236 H 623.622 V 0 H 0 Z"
         transform="translate(-354.04021,-539.73021)"
         id="path66" />
    </clipPath>
    <clipPath
       clipPathUnits="userSpaceOnUse"
       id="clipPath68">
      <path
         d="M 0,870.236 H 623.622 V 0 H 0 Z"
         transform="translate(-354.48601,-512.45941)"
         id="path68" />
    </clipPath>
    <clipPath
       clipPathUnits="userSpaceOnUse"
       id="clipPath70">
      <path
         d="M 0,870.236 H 623.622 V 0 H 0 Z"
         transform="translate(-361.37911,-523.76592)"
         id="path70" />
    </clipPath>
    <clipPath
       clipPathUnits="userSpaceOnUse"
       id="clipPath72">
      <path
         d="M 0,870.236 H 623.622 V 0 H 0 Z"
         transform="translate(-335.28851,-538.69761)"
         id="path72" />
    </clipPath>
    <clipPath
       clipPathUnits="userSpaceOnUse"
       id="clipPath74">
      <path
         d="M 0,870.236 H 623.622 V 0 H 0 Z"
         transform="translate(-355.38421,-538.69701)"
         id="path74" />
    </clipPath>
    <clipPath
       clipPathUnits="userSpaceOnUse"
       id="clipPath76">
      <path
         d="M 0,870.236 H 623.622 V 0 H 0 Z"
         transform="translate(-334.83901,-520.76382)"
         id="path76" />
    </clipPath>
    <clipPath
       clipPathUnits="userSpaceOnUse"
       id="clipPath78">
      <path
         d="M 0,870.236 H 623.622 V 0 H 0 Z"
         transform="translate(-355.59631,-526.70682)"
         id="path78" />
    </clipPath>
    <clipPath
       clipPathUnits="userSpaceOnUse"
       id="clipPath80">
      <path
         d="M 0,870.236 H 623.622 V 0 H 0 Z"
         transform="translate(-336.34281,-520.78591)"
         id="path80" />
    </clipPath>
    <clipPath
       clipPathUnits="userSpaceOnUse"
       id="clipPath82">
      <path
         d="M 0,870.236 H 623.622 V 0 H 0 Z"
         transform="translate(-351.77731,-526.83252)"
         id="path82" />
    </clipPath>
    <clipPath
       clipPathUnits="userSpaceOnUse"
       id="clipPath2">
      <path
         d="M 0,870.236 H 623.622 V 0 H 0 Z"
         transform="translate(-73.429302,-421.64061)"
         id="path2" />
    </clipPath>
    <clipPath
       clipPathUnits="userSpaceOnUse"
       id="clipPath4">
      <path
         d="M 0,870.236 H 623.622 V 0 H 0 Z"
         transform="translate(-73.429302,-422.73021)"
         id="path4" />
    </clipPath>
    <clipPath
       clipPathUnits="userSpaceOnUse"
       id="clipPath6">
      <path
         d="M 0,870.236 H 623.622 V 0 H 0 Z"
         transform="translate(-45.587501,-434.74521)"
         id="path6" />
    </clipPath>
    <clipPath
       clipPathUnits="userSpaceOnUse"
       id="clipPath8">
      <path
         d="M 0,870.236 H 623.622 V 0 H 0 Z"
         transform="translate(-42.165901,-412.06531)"
         id="path8" />
    </clipPath>
    <clipPath
       clipPathUnits="userSpaceOnUse"
       id="clipPath10">
      <path
         d="M 0,870.236 H 623.622 V 0 H 0 Z"
         transform="translate(-57.034201,-408.61671)"
         id="path10" />
    </clipPath>
    <clipPath
       clipPathUnits="userSpaceOnUse"
       id="clipPath12">
      <path
         d="M 0,870.236 H 623.622 V 0 H 0 Z"
         transform="translate(-63.766202,-433.98471)"
         id="path12" />
    </clipPath>
    <clipPath
       clipPathUnits="userSpaceOnUse"
       id="clipPath14">
      <path
         d="M 0,870.236 H 623.622 V 0 H 0 Z"
         transform="translate(-34.775701,-424.79791)"
         id="path14" />
    </clipPath>
    <clipPath
       clipPathUnits="userSpaceOnUse"
       id="clipPath16">
      <path
         d="M 0,870.236 H 623.622 V 0 H 0 Z"
         transform="translate(-54.069601,-418.12171)"
         id="path16" />
    </clipPath>
    <clipPath
       clipPathUnits="userSpaceOnUse"
       id="clipPath18">
      <path
         d="M 0,870.236 H 623.622 V 0 H 0 Z"
         transform="translate(-54.069601,-418.12171)"
         id="path18" />
    </clipPath>
    <clipPath
       clipPathUnits="userSpaceOnUse"
       id="clipPath20">
      <path
         d="M 0,870.236 H 623.622 V 0 H 0 Z"
         transform="translate(-64.945202,-425.67851)"
         id="path20" />
    </clipPath>
  </defs>
  <g
     id="layer1"
     transform="matrix(4.072244,0,0,4.072244,-9.8255152,-0.70333255)">
    <path
       id="path1"
       d="m 0,0 c -0.19,-0.312 -0.181,-0.682 -0.302,-1.017 -0.573,-1.598 -1.774,-2.355 -3.385,-2.552 -0.361,-0.044 -0.554,-0.155 -0.709,-0.503 -1.253,-2.822 -3.279,-4.966 -5.878,-6.591 -0.256,-0.16 -0.339,-0.286 -0.255,-0.606 0.185,-0.709 0.414,-1.411 0.507,-2.143 0.13,-1.021 -0.648,-2.021 -1.682,-2.068 -1.061,-0.049 -2.125,-0.039 -3.188,-0.028 -0.917,0.008 -1.519,0.581 -2.054,1.236 -0.195,0.239 -0.376,0.498 -0.517,0.772 -0.133,0.258 -0.31,0.288 -0.567,0.259 -1.841,-0.212 -3.672,-0.13 -5.491,0.221 -0.247,0.048 -0.3,0.024 -0.251,-0.252 0.225,-1.256 -0.825,-2.209 -1.73,-2.227 -1.089,-0.022 -2.177,-0.027 -3.266,0 -0.462,0.011 -0.845,0.21 -1.184,0.509 -1.381,1.22 -2.078,2.804 -2.416,4.572 -0.112,0.586 -0.192,1.178 -0.163,1.776 0.011,0.217 -0.124,0.327 -0.247,0.455 -1.507,1.557 -2.663,3.336 -3.269,5.424 -0.215,0.74 -0.523,1.226 -1.244,1.616 -1.639,0.888 -2.5,2.343 -2.557,4.237 -0.014,0.491 0.201,0.851 0.613,1.087 0.417,0.238 0.844,0.226 1.242,-0.054 0.467,-0.328 0.96,-0.603 1.531,-0.774 0.144,0.525 0.267,1.059 0.437,1.578 1.098,3.34 3.267,5.828 6.18,7.717 0.33,0.213 0.635,0.18 0.899,-0.123 0.209,-0.301 0.2,-0.539 -0.034,-0.796 -0.114,-0.126 -0.262,-0.211 -0.402,-0.304 -1.898,-1.265 -3.459,-2.85 -4.559,-4.859 -0.859,-1.569 -1.328,-3.243 -1.378,-5.05 -0.081,-2.931 0.928,-5.48 2.699,-7.732 2.264,-2.879 5.245,-4.651 8.822,-5.443 1.687,-0.374 3.397,-0.479 5.103,-0.358 3.572,0.255 6.802,1.446 9.569,3.775 1.699,1.43 2.98,3.165 3.794,5.235 0.153,0.389 0.392,0.61 0.823,0.656 0.448,0.049 0.9,0.055 1.342,0.194 0.928,0.293 1.477,0.918 1.733,1.833 0.288,1.031 0.155,2.057 -0.046,3.08 -0.052,0.267 -0.101,0.536 -0.189,0.794 -0.213,0.632 -0.798,0.949 -1.445,0.782 -0.302,-0.077 -0.593,-0.19 -0.89,-0.283 -0.621,-0.194 -0.929,-0.054 -1.148,0.558 -0.346,0.969 -0.771,1.898 -1.334,2.761 -1.287,1.975 -3.005,3.481 -5.052,4.629 -2.114,1.186 -4.387,1.844 -6.793,2.073 -2.921,0.278 -5.736,-0.154 -8.452,-1.259 -0.587,-0.239 -0.849,-0.158 -1.059,0.298 -0.043,0.526 0.034,0.648 0.516,0.856 2.787,1.2 5.707,1.609 8.715,1.427 1.237,-0.075 2.462,-0.285 3.655,-0.634 0.285,-0.083 0.443,-0.019 0.623,0.197 0.943,1.132 2.105,1.933 3.554,2.282 0.643,0.155 1.277,0.232 1.852,-0.213 0.412,-0.319 0.657,-0.737 0.67,-1.257 0.034,-1.295 0.034,-2.59 -0.297,-3.857 -0.064,-0.243 0.01,-0.401 0.203,-0.562 C -6.479,9.784 -5.048,7.896 -4.17,5.613 -4.056,5.318 -3.906,5.411 -3.733,5.477 -2.486,5.95 -1.461,5.45 -0.885,4.775 -0.384,4.186 -0.314,3.438 -0.154,2.723 -0.09,2.439 -0.142,2.136 0,1.868 V 1.79 C -0.063,1.557 -0.063,1.323 0,1.09 Z"
       style="fill:#050606;fill-opacity:1;fill-rule:nonzero;stroke:none"
       transform="matrix(0.35277776,0,0,-0.35277776,16.618415,7.1403013)"
       clip-path="url(#clipPath2)" />
    <path
       id="path3"
       d="M 0,0 C -0.118,0.233 -0.134,0.467 0,0.7 Z"
       style="fill:#1e1e22;fill-opacity:1;fill-rule:nonzero;stroke:none"
       transform="matrix(0.35277776,0,0,-0.35277776,16.618415,6.7559153)"
       clip-path="url(#clipPath4)" />
    <path
       id="path5"
       d="m 0,0 c 0.349,-0.395 0.482,-0.434 0.977,-0.226 2.422,1.02 4.95,1.477 7.569,1.356 4.174,-0.194 7.884,-1.571 10.953,-4.472 1.459,-1.379 2.544,-3.02 3.209,-4.926 0.043,-0.121 0.085,-0.244 0.138,-0.361 0.173,-0.383 0.412,-0.496 0.81,-0.38 0.396,0.115 0.785,0.258 1.186,0.353 0.565,0.134 1.192,-0.144 1.362,-0.693 0.429,-1.383 0.677,-2.791 0.264,-4.233 -0.376,-1.309 -1.386,-1.875 -2.528,-1.915 -0.785,-0.028 -1.201,-0.28 -1.518,-1.043 -1.235,-2.973 -3.413,-5.119 -6.203,-6.653 -3.017,-1.659 -6.277,-2.274 -9.691,-2.036 -2.981,0.208 -5.762,1.086 -8.211,2.833 -3.044,2.174 -5.142,5.021 -5.772,8.77 -0.52,3.098 0.279,5.922 2.106,8.462 1.064,1.48 2.391,2.682 3.917,3.673 0.423,0.275 0.472,0.433 0.328,0.908 C -0.719,-0.421 -0.346,-0.236 0,0"
       style="fill:#86d272;fill-opacity:1;fill-rule:nonzero;stroke:none"
       transform="matrix(0.35277776,0,0,-0.35277776,6.7964468,2.5172903)"
       clip-path="url(#clipPath6)" />
    <path
       id="path7"
       d="M 0,0 C 0.585,-0.413 1.144,-0.828 1.741,-1.188 3.043,-1.974 4.434,-2.557 5.886,-2.994 6.101,-3.058 6.225,-3.141 6.233,-3.379 6.239,-3.532 6.292,-3.683 6.321,-3.835 6.419,-4.339 6.106,-4.745 5.595,-4.749 4.622,-4.758 3.649,-4.744 2.677,-4.755 2.188,-4.76 1.935,-4.401 1.667,-4.105 0.649,-2.982 0.171,-1.617 -0.021,-0.136 -0.026,-0.103 -0.011,-0.067 0,0"
       style="fill:#72cb69;fill-opacity:1;fill-rule:nonzero;stroke:none"
       transform="matrix(0.35277776,0,0,-0.35277776,5.5893818,10.518255)"
       clip-path="url(#clipPath8)" />
    <path
       id="path9"
       d="M 0,0 C 1.175,0.245 2.269,0.541 3.324,0.965 3.696,1.114 4.065,1.27 4.425,1.444 4.617,1.536 4.713,1.541 4.768,1.301 4.892,0.76 5.053,0.227 5.176,-0.314 5.311,-0.905 4.985,-1.3 4.377,-1.303 3.534,-1.306 2.689,-1.272 1.849,-1.315 1.261,-1.345 0.858,-1.095 0.516,-0.673 0.354,-0.473 0.202,-0.264 0,0"
       style="fill:#72cb69;fill-opacity:1;fill-rule:nonzero;stroke:none"
       transform="matrix(0.35277776,0,0,-0.35277776,10.834588,11.734844)"
       clip-path="url(#clipPath10)" />
    <path
       id="path11"
       d="M 0,0 C -1.192,0.808 -2.414,1.416 -3.715,1.917 -2.814,2.94 -1.752,3.623 -0.411,3.826 -0.058,3.879 0.218,3.695 0.233,3.33 0.28,2.23 0.238,1.134 0,0"
       style="fill:#72cb69;fill-opacity:1;fill-rule:nonzero;stroke:none"
       transform="matrix(0.35277776,0,0,-0.35277776,13.209488,2.7855773)"
       clip-path="url(#clipPath12)" />
    <path
       id="path13"
       d="M 0,0 C 0.6,-0.449 1.214,-0.743 1.865,-0.959 1.977,-0.997 2.043,-1.035 2.034,-1.169 1.986,-1.888 1.978,-2.607 2.081,-3.345 0.841,-2.789 -0.038,-1.383 0,0"
       style="fill:#73cb69;fill-opacity:1;fill-rule:nonzero;stroke:none"
       transform="matrix(0.35277776,0,0,-0.35277776,2.9822838,6.0264773)"
       clip-path="url(#clipPath14)" />
    <path
       id="path15"
       d="m 0,0 c 0.371,-0.312 0.424,-0.573 0.155,-0.969 -1.009,-1.488 -2.023,-2.973 -3.044,-4.454 -0.277,-0.401 -0.703,-0.531 -1.121,-0.382 -0.412,0.148 -0.675,0.52 -0.604,1.012 0.136,0.945 0.317,1.884 0.491,2.823 0.238,1.282 0.48,2.563 0.736,3.841 0.055,0.274 -0.08,0.265 -0.267,0.264 -1.336,-0.003 -2.672,-0.007 -4.007,0 -0.91,0.005 -1.454,0.558 -1.391,1.383 0.017,0.231 0.122,0.419 0.245,0.6 2.479,3.632 4.959,7.265 7.444,10.894 0.298,0.436 0.741,0.573 1.181,0.401 0.393,-0.154 0.64,-0.547 0.559,-1.042 C 0.175,13.136 -0.062,11.906 -0.29,10.674 -0.473,9.685 -0.657,8.695 -0.856,7.708 -0.91,7.441 -0.756,7.472 -0.597,7.472 0.725,7.473 2.048,7.474 3.371,7.472 3.711,7.471 4.046,7.437 4.328,7.222 4.878,6.805 4.983,6.12 4.571,5.5 3.926,4.531 3.264,3.573 2.608,2.611 2.288,2.14 1.969,1.669 1.644,1.202 1.349,0.779 1.179,0.725 0.694,0.884 0.393,1.072 0.31,1.297 0.432,1.629 0.522,1.875 0.688,2.078 0.836,2.291 1.65,3.462 2.444,4.647 3.255,5.821 3.323,5.92 3.464,6.026 3.378,6.159 3.311,6.263 3.161,6.215 3.048,6.215 c -1.466,0.003 -2.931,0 -4.397,0.003 -0.779,0.001 -1.025,0.304 -0.877,1.074 0.365,1.908 0.712,3.82 1.088,5.787 C -2.179,11.574 -3.175,10.112 -4.174,8.651 -5.249,7.077 -6.321,5.5 -7.402,3.931 -7.461,3.845 -7.516,3.757 -7.574,3.671 c -0.125,-0.183 -0.1,-0.283 0.143,-0.282 0.312,0.002 0.623,0 0.934,0 1.219,0 2.438,0.003 3.657,-10e-4 0.702,-0.002 0.966,-0.324 0.839,-1.01 -0.358,-1.936 -0.725,-3.871 -1.092,-5.833 0.741,1.038 1.423,2.091 2.141,3.118 0.196,0.281 0.408,0.511 0.793,0.436 C -0.094,0.087 -0.035,0.061 0,0"
       style="fill:#050606;fill-opacity:1;fill-rule:nonzero;stroke:none"
       transform="matrix(0.35277776,0,0,-0.35277776,9.7887428,8.3816923)"
       clip-path="url(#clipPath16)" />
    <path
       id="path17"
       d="m 0,0 c -0.38,0.106 -0.635,-0.04 -0.85,-0.361 -0.691,-1.033 -1.398,-2.055 -2.103,-3.078 -0.074,-0.109 -0.107,-0.274 -0.294,-0.275 0.382,2.057 0.763,4.11 1.144,6.162 0.109,0.587 -0.104,0.861 -0.703,0.863 -1.608,0.007 -3.216,0.002 -4.824,0.003 h -0.311 c 2.309,3.378 4.572,6.691 6.892,10.085 C -1.001,12.903 -1.14,12.528 -1.207,12.151 -1.507,10.472 -1.831,8.797 -2.144,7.12 -2.247,6.574 -2.017,6.297 -1.433,6.295 0.123,6.288 1.679,6.293 3.235,6.292 H 3.614 C 3.629,6.112 3.517,6.027 3.449,5.927 2.525,4.567 1.604,3.206 0.667,1.856 0.424,1.506 0.4,1.2 0.694,0.884 0.485,0.572 0.335,0.213 0,0"
       style="fill:#f8e14a;fill-opacity:1;fill-rule:nonzero;stroke:none"
       transform="matrix(0.35277776,0,0,-0.35277776,9.7887428,8.3816923)"
       clip-path="url(#clipPath18)" />
    <path
       id="path19"
       d="m 0,0 c 0,0.245 -0.013,0.491 0.003,0.735 0.02,0.3 0.216,0.467 0.495,0.508 C 0.767,1.283 1.014,1.167 1.08,0.903 1.23,0.298 1.23,-0.325 1.082,-0.929 1.016,-1.197 0.76,-1.319 0.467,-1.264 0.18,-1.209 0.01,-1.036 0,-0.735 -0.008,-0.49 -0.002,-0.245 -0.002,0 Z"
       style="fill:#060707;fill-opacity:1;fill-rule:nonzero;stroke:none"
       transform="matrix(0.35277776,0,0,-0.35277776,13.625413,5.7158193)"
       clip-path="url(#clipPath20)" />
  </g>
</svg>
