<?xml version="1.0" encoding="UTF-8" standalone="no"?>
<!-- Created with Inkscape (http://www.inkscape.org/) -->

<svg
   width="58.880001"
   height="53.098"
   viewBox="0 0 58.880001 53.098"
   version="1.1"
   id="svg1"
   sodipodi:docname="maisonConfort.svg"
   inkscape:version="1.3 (0e150ed6c4, 2023-07-21)"
   xmlns:inkscape="http://www.inkscape.org/namespaces/inkscape"
   xmlns:sodipodi="http://sodipodi.sourceforge.net/DTD/sodipodi-0.dtd"
   xmlns="http://www.w3.org/2000/svg"
   xmlns:svg="http://www.w3.org/2000/svg">
  <sodipodi:namedview
     id="namedview1"
     pagecolor="#ffffff"
     bordercolor="#000000"
     borderopacity="0.25"
     inkscape:showpageshadow="2"
     inkscape:pageopacity="0.0"
     inkscape:pagecheckerboard="0"
     inkscape:deskcolor="#d1d1d1"
     inkscape:document-units="mm"
     inkscape:zoom="10.34741"
     inkscape:cx="25.175382"
     inkscape:cy="32.085324"
     inkscape:window-width="1680"
     inkscape:window-height="1020"
     inkscape:window-x="2599"
     inkscape:window-y="210"
     inkscape:window-maximized="0"
     inkscape:current-layer="svg1" />
  <defs
     id="defs1">
    <clipPath
       clipPathUnits="userSpaceOnUse"
       id="clipPath292">
      <path
         d="M 0,870.236 H 623.622 V 0 H 0 Z"
         transform="translate(-79.402402,-508.51422)"
         id="path292" />
    </clipPath>
    <clipPath
       clipPathUnits="userSpaceOnUse"
       id="clipPath294">
      <path
         d="M 0,870.236 H 623.622 V 0 H 0 Z"
         transform="translate(-40.134901,-536.37162)"
         id="path294" />
    </clipPath>
    <clipPath
       clipPathUnits="userSpaceOnUse"
       id="clipPath296">
      <path
         d="M 0,870.236 H 623.622 V 0 H 0 Z"
         transform="translate(-65.220202,-527.41092)"
         id="path296" />
    </clipPath>
    <clipPath
       clipPathUnits="userSpaceOnUse"
       id="clipPath298">
      <path
         d="M 0,870.236 H 623.622 V 0 H 0 Z"
         transform="translate(-64.219502,-532.66971)"
         id="path298" />
    </clipPath>
    <clipPath
       clipPathUnits="userSpaceOnUse"
       id="clipPath300">
      <path
         d="M 0,870.236 H 623.622 V 0 H 0 Z"
         transform="translate(-40.134901,-536.37162)"
         id="path300" />
    </clipPath>
    <clipPath
       clipPathUnits="userSpaceOnUse"
       id="clipPath302">
      <path
         d="M 0,870.236 H 623.622 V 0 H 0 Z"
         transform="translate(-60.858202,-520.84851)"
         id="path302" />
    </clipPath>
    <clipPath
       clipPathUnits="userSpaceOnUse"
       id="clipPath304">
      <path
         d="M 0,870.236 H 623.622 V 0 H 0 Z"
         transform="translate(-57.442601,-513.71451)"
         id="path304" />
    </clipPath>
    <clipPath
       clipPathUnits="userSpaceOnUse"
       id="clipPath306">
      <path
         d="M 0,870.236 H 623.622 V 0 H 0 Z"
         transform="translate(-60.879802,-524.01091)"
         id="path306" />
    </clipPath>
    <clipPath
       clipPathUnits="userSpaceOnUse"
       id="clipPath308">
      <path
         d="M 0,870.236 H 623.622 V 0 H 0 Z"
         transform="translate(-69.353902,-507.31662)"
         id="path308" />
    </clipPath>
    <clipPath
       clipPathUnits="userSpaceOnUse"
       id="clipPath310">
      <path
         d="M 0,870.236 H 623.622 V 0 H 0 Z"
         transform="translate(-68.405602,-515.33952)"
         id="path310" />
    </clipPath>
    <clipPath
       clipPathUnits="userSpaceOnUse"
       id="clipPath312">
      <path
         d="M 0,870.236 H 623.622 V 0 H 0 Z"
         transform="translate(-67.368002,-520.59552)"
         id="path312" />
    </clipPath>
    <clipPath
       clipPathUnits="userSpaceOnUse"
       id="clipPath314">
      <path
         d="M 0,870.236 H 623.622 V 0 H 0 Z"
         transform="translate(-66.362602,-523.08801)"
         id="path314" />
    </clipPath>
    <clipPath
       clipPathUnits="userSpaceOnUse"
       id="clipPath316">
      <path
         d="M 0,870.236 H 623.622 V 0 H 0 Z"
         transform="translate(-40.676601,-526.19431)"
         id="path316" />
    </clipPath>
    <clipPath
       clipPathUnits="userSpaceOnUse"
       id="clipPath318">
      <path
         d="M 0,870.236 H 623.622 V 0 H 0 Z"
         transform="translate(-62.726602,-522.15541)"
         id="path318" />
    </clipPath>
    <clipPath
       clipPathUnits="userSpaceOnUse"
       id="clipPath320">
      <path
         d="M 0,870.236 H 623.622 V 0 H 0 Z"
         transform="translate(-42.732601,-540.50421)"
         id="path320" />
    </clipPath>
    <clipPath
       clipPathUnits="userSpaceOnUse"
       id="clipPath322">
      <path
         d="M 0,870.236 H 623.622 V 0 H 0 Z"
         transform="translate(-65.403701,-531.11301)"
         id="path322" />
    </clipPath>
    <clipPath
       clipPathUnits="userSpaceOnUse"
       id="clipPath324">
      <path
         d="M 0,870.236 H 623.622 V 0 H 0 Z"
         transform="translate(-64.437101,-536.37301)"
         id="path324" />
    </clipPath>
    <clipPath
       clipPathUnits="userSpaceOnUse"
       id="clipPath326">
      <path
         d="M 0,870.236 H 623.622 V 0 H 0 Z"
         transform="translate(-48.097401,-517.73382)"
         id="path326" />
    </clipPath>
    <clipPath
       clipPathUnits="userSpaceOnUse"
       id="clipPath328">
      <path
         d="M 0,870.236 H 623.622 V 0 H 0 Z"
         transform="translate(-52.371601,-512.99511)"
         id="path328" />
    </clipPath>
    <clipPath
       clipPathUnits="userSpaceOnUse"
       id="clipPath330">
      <path
         d="M 0,870.236 H 623.622 V 0 H 0 Z"
         transform="translate(-44.049301,-515.67531)"
         id="path330" />
    </clipPath>
    <clipPath
       clipPathUnits="userSpaceOnUse"
       id="clipPath332">
      <path
         d="M 0,870.236 H 623.622 V 0 H 0 Z"
         transform="translate(-44.049301,-515.67531)"
         id="path332" />
    </clipPath>
    <clipPath
       clipPathUnits="userSpaceOnUse"
       id="clipPath62">
      <path
         d="M 0,870.236 H 623.622 V 0 H 0 Z"
         transform="translate(-362.04961,-521.22192)"
         id="path62" />
    </clipPath>
    <clipPath
       clipPathUnits="userSpaceOnUse"
       id="clipPath64">
      <path
         d="M 0,870.236 H 623.622 V 0 H 0 Z"
         transform="translate(-346.73911,-530.60491)"
         id="path64" />
    </clipPath>
    <clipPath
       clipPathUnits="userSpaceOnUse"
       id="clipPath66">
      <path
         d="M 0,870.236 H 623.622 V 0 H 0 Z"
         transform="translate(-354.04021,-539.73021)"
         id="path66" />
    </clipPath>
    <clipPath
       clipPathUnits="userSpaceOnUse"
       id="clipPath68">
      <path
         d="M 0,870.236 H 623.622 V 0 H 0 Z"
         transform="translate(-354.48601,-512.45941)"
         id="path68" />
    </clipPath>
    <clipPath
       clipPathUnits="userSpaceOnUse"
       id="clipPath70">
      <path
         d="M 0,870.236 H 623.622 V 0 H 0 Z"
         transform="translate(-361.37911,-523.76592)"
         id="path70" />
    </clipPath>
    <clipPath
       clipPathUnits="userSpaceOnUse"
       id="clipPath72">
      <path
         d="M 0,870.236 H 623.622 V 0 H 0 Z"
         transform="translate(-335.28851,-538.69761)"
         id="path72" />
    </clipPath>
    <clipPath
       clipPathUnits="userSpaceOnUse"
       id="clipPath74">
      <path
         d="M 0,870.236 H 623.622 V 0 H 0 Z"
         transform="translate(-355.38421,-538.69701)"
         id="path74" />
    </clipPath>
    <clipPath
       clipPathUnits="userSpaceOnUse"
       id="clipPath76">
      <path
         d="M 0,870.236 H 623.622 V 0 H 0 Z"
         transform="translate(-334.83901,-520.76382)"
         id="path76" />
    </clipPath>
    <clipPath
       clipPathUnits="userSpaceOnUse"
       id="clipPath78">
      <path
         d="M 0,870.236 H 623.622 V 0 H 0 Z"
         transform="translate(-355.59631,-526.70682)"
         id="path78" />
    </clipPath>
    <clipPath
       clipPathUnits="userSpaceOnUse"
       id="clipPath80">
      <path
         d="M 0,870.236 H 623.622 V 0 H 0 Z"
         transform="translate(-336.34281,-520.78591)"
         id="path80" />
    </clipPath>
    <clipPath
       clipPathUnits="userSpaceOnUse"
       id="clipPath82">
      <path
         d="M 0,870.236 H 623.622 V 0 H 0 Z"
         transform="translate(-351.77731,-526.83252)"
         id="path82" />
    </clipPath>
  </defs>
  <g
     id="layer1"
     transform="matrix(3.7776559,0,0,3.7776559,-7.0331548,0.39618862)">
    <path
       id="path61"
       d="m 0,0 v -0.565 c 0,-4.396 0,-8.792 0,-13.188 0,-0.798 -0.221,-1.018 -1.029,-1.021 -4.286,-0.012 -8.571,-0.06 -12.857,-0.026 -5.221,0.04 -10.441,0.004 -15.662,0.026 -0.833,0.003 -1.046,0.217 -1.046,1.053 0,7.529 -0.004,15.059 0.01,22.588 0.001,0.43 -0.108,0.552 -0.533,0.529 -0.653,-0.037 -1.309,-0.016 -1.963,-0.004 -0.75,0.014 -1.356,0.466 -1.58,1.158 -0.233,0.718 -0.017,1.457 0.618,1.904 1.488,1.048 2.949,2.143 4.505,3.081 0.985,0.594 1.378,1.269 1.275,2.423 -0.115,1.299 -0.028,2.616 -0.026,3.926 0.002,0.827 0.238,1.064 1.047,1.064 1.434,0.001 2.868,0.001 4.302,0 0.8,0 1.044,-0.251 1.046,-1.07 0,-0.32 0,-0.641 0,-1.042 0.922,0.634 1.776,1.22 2.629,1.807 0.935,0.643 1.87,1.289 2.805,1.932 0.834,0.573 1.446,0.585 2.276,0.015 2.372,-1.626 4.745,-3.25 7.099,-4.903 0.359,-0.252 0.513,-0.169 0.719,0.138 0.41,0.612 0.721,1.269 0.915,1.976 0.113,0.412 0.34,0.676 0.771,0.674 0.433,-0.002 0.647,-0.276 0.76,-0.685 0.274,-1.003 0.715,-1.919 1.493,-2.642 0.554,-0.514 1.193,-0.831 1.953,-0.889 0.093,-0.007 0.186,-0.019 0.279,-0.029 0.617,-0.07 0.889,-0.328 0.862,-0.817 -0.025,-0.457 -0.334,-0.705 -0.911,-0.72 -0.589,-0.014 -1.126,-0.19 -1.639,-0.488 0.049,-0.178 0.208,-0.222 0.326,-0.304 1.611,-1.113 3.228,-2.22 4.838,-3.337 C 4.025,12.049 4.28,11.36 4.038,10.588 3.787,9.787 3.229,9.396 2.31,9.387 1.827,9.382 1.344,9.386 0.861,9.386 0,9.386 0,9.386 0,8.511 V 5.151 C 0.691,6.008 1.089,6.899 1.396,7.838 1.416,7.896 1.423,7.959 1.438,8.019 1.543,8.443 1.796,8.732 2.248,8.711 2.672,8.691 2.891,8.402 2.993,7.995 3.225,7.069 3.605,6.207 4.158,5.426 5.097,4.102 6.337,3.33 7.996,3.301 8.499,3.293 8.831,2.978 8.841,2.548 8.85,2.13 8.564,1.801 8.068,1.781 5.389,1.675 4.061,-0.037 3.185,-2.293 3.096,-2.523 3.05,-2.769 2.975,-3.005 2.862,-3.359 2.654,-3.605 2.248,-3.613 1.826,-3.622 1.583,-3.407 1.474,-3.013 1.181,-1.959 0.761,-0.964 0,0"
       style="fill:#050606;fill-opacity:1;fill-rule:nonzero;stroke:none"
       transform="matrix(0.35277776,0,0,-0.35277776,14.121233,8.7185129)"
       clip-path="url(#clipPath62)" />
    <path
       id="path63"
       d="m 0,0 c 4.442,0 8.883,-0.005 13.325,0.009 0.378,0.001 0.501,-0.081 0.495,-0.48 -0.024,-1.558 -0.019,-3.117 -0.002,-4.676 0.004,-0.318 -0.099,-0.472 -0.389,-0.584 -0.558,-0.217 -1.125,-0.346 -1.725,-0.35 -0.381,-0.002 -0.664,-0.193 -0.768,-0.565 -0.086,-0.308 0.014,-0.584 0.269,-0.793 0.155,-0.127 0.341,-0.14 0.529,-0.152 0.592,-0.038 1.172,-0.128 1.728,-0.355 0.243,-0.099 0.356,-0.224 0.355,-0.513 -0.01,-4.598 -0.01,-9.195 0,-13.793 10e-4,-0.307 -0.084,-0.394 -0.39,-0.39 -1.247,0.016 -2.494,0.023 -3.74,-0.003 -0.376,-0.008 -0.428,0.131 -0.426,0.457 0.011,2.65 0.013,5.299 0.003,7.949 -0.005,1.548 -0.852,2.695 -2.235,3.064 -0.179,0.048 -0.367,0.084 -0.551,0.089 -1.245,0.033 -2.494,0.103 -3.735,-0.033 -1.461,-0.16 -2.576,-1.432 -2.58,-2.905 -0.008,-2.712 -0.011,-5.424 0.007,-8.136 0.002,-0.39 -0.096,-0.486 -0.485,-0.485 -4.332,0.015 -8.665,0.016 -12.997,0 -0.405,-0.002 -0.475,0.121 -0.474,0.495 0.011,7.216 0.012,14.433 -0.002,21.649 -10e-4,0.411 0.096,0.513 0.51,0.511 C -8.852,-0.006 -4.426,0 0,0"
       style="fill:#f3f3f1;fill-opacity:1;fill-rule:nonzero;stroke:none"
       transform="matrix(0.35277776,0,0,-0.35277776,8.7200291,5.4084011)"
       clip-path="url(#clipPath64)" />
    <path
       id="path65"
       d="m 0,0 c -0.428,-0.261 -0.872,-0.239 -1.298,-0.296 -0.451,-0.061 -0.707,-0.311 -0.722,-0.707 -0.016,-0.421 0.241,-0.771 0.695,-0.784 2.166,-0.066 3.167,-1.465 3.805,-3.28 0.156,-0.443 0.209,-0.948 0.83,-0.961 0.653,-0.013 0.73,0.506 0.867,0.971 0.16,0.539 0.301,1.251 0.737,1.455 0.463,0.218 0.905,-0.429 1.339,-0.719 1.358,-0.906 2.699,-1.839 4.041,-2.769 0.14,-0.097 0.395,-0.164 0.306,-0.404 -0.075,-0.2 -0.297,-0.125 -0.46,-0.125 -11.627,-0.002 -23.254,-0.003 -34.881,10e-4 -0.155,0.001 -0.371,-0.091 -0.447,0.135 -0.077,0.227 0.144,0.283 0.275,0.373 5.763,3.971 11.529,7.938 17.291,11.909 0.207,0.143 0.364,0.217 0.615,0.042 C -4.723,3.249 -2.427,1.672 -0.135,0.09 -0.097,0.064 -0.058,0.039 0,0"
       style="fill:#f03a3d;fill-opacity:1;fill-rule:nonzero;stroke:none"
       transform="matrix(0.35277776,0,0,-0.35277776,11.295694,2.1891972)"
       clip-path="url(#clipPath66)" />
    <path
       id="path67"
       d="m 0,0 c 0,-1.356 -0.009,-2.712 0.007,-4.067 0.004,-0.306 -0.044,-0.429 -0.394,-0.426 -1.776,0.02 -3.552,0.017 -5.328,0.002 -0.308,-0.003 -0.385,0.082 -0.384,0.386 0.012,2.711 0.003,5.423 0.009,8.134 0.002,0.88 0.605,1.506 1.485,1.523 1.044,0.02 2.089,0.02 3.132,-10e-4 C -0.59,5.534 -0.008,4.917 -0.002,4.021 0.006,2.68 0,1.34 0,0"
       style="fill:#51c4e0;fill-opacity:1;fill-rule:nonzero;stroke:none"
       transform="matrix(0.35277776,0,0,-0.35277776,11.452963,11.80973)"
       clip-path="url(#clipPath68)" />
    <path
       id="path69"
       d="M 0,0 C 1.239,0.806 2.177,1.864 2.866,3.215 3.565,1.881 4.474,0.789 5.783,-0.005 4.47,-0.777 3.582,-1.875 2.884,-3.193 2.183,-1.864 1.275,-0.787 0,0"
       style="fill:#f8e14a;fill-opacity:1;fill-rule:nonzero;stroke:none"
       transform="matrix(0.35277776,0,0,-0.35277776,13.884695,7.8210469)"
       clip-path="url(#clipPath70)" />
    <path
       id="path71"
       d="m 0,0 c 0,1.303 0.001,2.522 -0.001,3.742 0,0.152 0.055,0.224 0.217,0.224 0.963,-0.004 1.926,-0.004 2.889,0 C 3.28,3.967 3.367,3.901 3.355,3.721 3.353,3.69 3.354,3.659 3.356,3.628 3.413,2.344 3.413,2.344 2.356,1.619 1.594,1.095 0.833,0.572 0,0"
       style="fill:#51c4e0;fill-opacity:1;fill-rule:nonzero;stroke:none"
       transform="matrix(0.35277776,0,0,-0.35277776,4.6805111,2.5534755)"
       clip-path="url(#clipPath72)" />
    <path
       id="path73"
       d="M 0,0 C 0.852,0.567 1.441,1.299 1.971,2.153 2.503,1.31 3.082,0.55 3.96,0.004 3.119,-0.544 2.509,-1.267 1.99,-2.155 1.456,-1.296 0.861,-0.556 0,0"
       style="fill:#f8e14a;fill-opacity:1;fill-rule:nonzero;stroke:none"
       transform="matrix(0.35277776,0,0,-0.35277776,11.769828,2.5536872)"
       clip-path="url(#clipPath74)" />
    <path
       id="path75"
       d="m 0,0 c 0,2.493 -0.001,4.986 0,7.479 0.001,0.78 0.255,1.038 1.036,1.038 2.758,0.002 5.515,0.002 8.273,0 0.775,0 1.043,-0.264 1.043,-1.038 0.002,-4.986 0.002,-9.972 0,-14.958 0,-0.793 -0.272,-1.067 -1.068,-1.068 C 6.542,-8.55 3.8,-8.551 1.058,-8.547 0.249,-8.545 0,-8.287 0,-7.479 0,-4.986 0,-2.493 0,0"
       style="fill:#050707;fill-opacity:1;fill-rule:nonzero;stroke:none"
       transform="matrix(0.35277776,0,0,-0.35277776,4.5219381,8.8801209)"
       clip-path="url(#clipPath76)" />
    <path
       id="path77"
       d="m 0,0 c -0.024,-0.341 -0.285,-0.622 -0.694,-0.641 -1.082,-0.051 -1.532,-0.758 -1.829,-1.651 -0.205,-0.614 -0.644,-0.857 -1.121,-0.606 -0.204,0.107 -0.323,0.278 -0.386,0.501 -0.089,0.314 -0.204,0.622 -0.385,0.896 -0.333,0.506 -0.77,0.825 -1.411,0.858 -0.475,0.025 -0.756,0.332 -0.778,0.725 -0.022,0.386 0.255,0.745 0.711,0.779 1.017,0.075 1.49,0.722 1.792,1.583 0.031,0.088 0.057,0.177 0.088,0.265 0.121,0.33 0.377,0.51 0.71,0.513 0.334,0.003 0.589,-0.176 0.713,-0.505 0.098,-0.261 0.177,-0.532 0.3,-0.781 C -1.988,1.33 -1.537,0.934 -0.818,0.872 -0.262,0.823 0.005,0.536 0,0"
       style="fill:#050607;fill-opacity:1;fill-rule:nonzero;stroke:none"
       transform="matrix(0.35277776,0,0,-0.35277776,11.844652,6.7835619)"
       clip-path="url(#clipPath78)" />
    <path
       id="path79"
       d="M 0,0 C 0,2.165 0.006,4.33 -0.007,6.495 -0.009,6.835 0.04,6.984 0.44,6.98 2.589,6.958 4.738,6.961 6.888,6.977 7.235,6.98 7.331,6.89 7.33,6.538 7.318,2.146 7.318,-2.247 7.329,-6.639 7.33,-6.977 7.226,-7.049 6.908,-7.047 4.758,-7.034 2.609,-7.032 0.46,-7.048 0.101,-7.051 -0.013,-6.966 -0.009,-6.589 0.01,-4.393 0,-2.196 0,0"
       style="fill:#51c4e0;fill-opacity:1;fill-rule:nonzero;stroke:none"
       transform="matrix(0.35277776,0,0,-0.35277776,5.0524461,8.8723259)"
       clip-path="url(#clipPath80)" />
    <path
       id="path81"
       d="M 0,0 C 0.166,0.181 0.332,0.363 0.499,0.544 1.068,-0.008 1.068,-0.008 0.689,-0.392 0.513,-0.569 0.513,-0.569 0,0"
       style="fill:#4fc0dc;fill-opacity:1;fill-rule:nonzero;stroke:none"
       transform="matrix(0.35277776,0,0,-0.35277776,10.497394,6.7392179)"
       clip-path="url(#clipPath82)" />
  </g>
</svg>
