<?xml version="1.0" encoding="UTF-8" standalone="no"?>
<!-- Created with Inkscape (http://www.inkscape.org/) -->

<svg
   width="58.880001"
   height="53.097538"
   viewBox="0 0 58.880001 53.097538"
   version="1.1"
   id="svg1"
   inkscape:version="1.3 (0e150ed6c4, 2023-07-21)"
   sodipodi:docname="maisonTravaux.svg"
   xmlns:inkscape="http://www.inkscape.org/namespaces/inkscape"
   xmlns:sodipodi="http://sodipodi.sourceforge.net/DTD/sodipodi-0.dtd"
   xmlns="http://www.w3.org/2000/svg"
   xmlns:svg="http://www.w3.org/2000/svg">
  <sodipodi:namedview
     id="namedview1"
     pagecolor="#ffffff"
     bordercolor="#000000"
     borderopacity="0.25"
     inkscape:showpageshadow="2"
     inkscape:pageopacity="0.0"
     inkscape:pagecheckerboard="0"
     inkscape:deskcolor="#d1d1d1"
     inkscape:document-units="mm"
     inkscape:zoom="5.5375421"
     inkscape:cx="44.333749"
     inkscape:cy="14.537136"
     inkscape:window-width="1920"
     inkscape:window-height="991"
     inkscape:window-x="-9"
     inkscape:window-y="-9"
     inkscape:window-maximized="1"
     inkscape:current-layer="layer1" />
  <defs
     id="defs1">
    <clipPath
       clipPathUnits="userSpaceOnUse"
       id="clipPath292">
      <path
         d="M 0,870.236 H 623.622 V 0 H 0 Z"
         transform="translate(-79.402402,-508.51422)"
         id="path292" />
    </clipPath>
    <clipPath
       clipPathUnits="userSpaceOnUse"
       id="clipPath294">
      <path
         d="M 0,870.236 H 623.622 V 0 H 0 Z"
         transform="translate(-40.134901,-536.37162)"
         id="path294" />
    </clipPath>
    <clipPath
       clipPathUnits="userSpaceOnUse"
       id="clipPath296">
      <path
         d="M 0,870.236 H 623.622 V 0 H 0 Z"
         transform="translate(-65.220202,-527.41092)"
         id="path296" />
    </clipPath>
    <clipPath
       clipPathUnits="userSpaceOnUse"
       id="clipPath298">
      <path
         d="M 0,870.236 H 623.622 V 0 H 0 Z"
         transform="translate(-64.219502,-532.66971)"
         id="path298" />
    </clipPath>
    <clipPath
       clipPathUnits="userSpaceOnUse"
       id="clipPath300">
      <path
         d="M 0,870.236 H 623.622 V 0 H 0 Z"
         transform="translate(-40.134901,-536.37162)"
         id="path300" />
    </clipPath>
    <clipPath
       clipPathUnits="userSpaceOnUse"
       id="clipPath302">
      <path
         d="M 0,870.236 H 623.622 V 0 H 0 Z"
         transform="translate(-60.858202,-520.84851)"
         id="path302" />
    </clipPath>
    <clipPath
       clipPathUnits="userSpaceOnUse"
       id="clipPath304">
      <path
         d="M 0,870.236 H 623.622 V 0 H 0 Z"
         transform="translate(-57.442601,-513.71451)"
         id="path304" />
    </clipPath>
    <clipPath
       clipPathUnits="userSpaceOnUse"
       id="clipPath306">
      <path
         d="M 0,870.236 H 623.622 V 0 H 0 Z"
         transform="translate(-60.879802,-524.01091)"
         id="path306" />
    </clipPath>
    <clipPath
       clipPathUnits="userSpaceOnUse"
       id="clipPath308">
      <path
         d="M 0,870.236 H 623.622 V 0 H 0 Z"
         transform="translate(-69.353902,-507.31662)"
         id="path308" />
    </clipPath>
    <clipPath
       clipPathUnits="userSpaceOnUse"
       id="clipPath310">
      <path
         d="M 0,870.236 H 623.622 V 0 H 0 Z"
         transform="translate(-68.405602,-515.33952)"
         id="path310" />
    </clipPath>
    <clipPath
       clipPathUnits="userSpaceOnUse"
       id="clipPath312">
      <path
         d="M 0,870.236 H 623.622 V 0 H 0 Z"
         transform="translate(-67.368002,-520.59552)"
         id="path312" />
    </clipPath>
    <clipPath
       clipPathUnits="userSpaceOnUse"
       id="clipPath314">
      <path
         d="M 0,870.236 H 623.622 V 0 H 0 Z"
         transform="translate(-66.362602,-523.08801)"
         id="path314" />
    </clipPath>
    <clipPath
       clipPathUnits="userSpaceOnUse"
       id="clipPath316">
      <path
         d="M 0,870.236 H 623.622 V 0 H 0 Z"
         transform="translate(-40.676601,-526.19431)"
         id="path316" />
    </clipPath>
    <clipPath
       clipPathUnits="userSpaceOnUse"
       id="clipPath318">
      <path
         d="M 0,870.236 H 623.622 V 0 H 0 Z"
         transform="translate(-62.726602,-522.15541)"
         id="path318" />
    </clipPath>
    <clipPath
       clipPathUnits="userSpaceOnUse"
       id="clipPath320">
      <path
         d="M 0,870.236 H 623.622 V 0 H 0 Z"
         transform="translate(-42.732601,-540.50421)"
         id="path320" />
    </clipPath>
    <clipPath
       clipPathUnits="userSpaceOnUse"
       id="clipPath322">
      <path
         d="M 0,870.236 H 623.622 V 0 H 0 Z"
         transform="translate(-65.403701,-531.11301)"
         id="path322" />
    </clipPath>
    <clipPath
       clipPathUnits="userSpaceOnUse"
       id="clipPath324">
      <path
         d="M 0,870.236 H 623.622 V 0 H 0 Z"
         transform="translate(-64.437101,-536.37301)"
         id="path324" />
    </clipPath>
    <clipPath
       clipPathUnits="userSpaceOnUse"
       id="clipPath326">
      <path
         d="M 0,870.236 H 623.622 V 0 H 0 Z"
         transform="translate(-48.097401,-517.73382)"
         id="path326" />
    </clipPath>
    <clipPath
       clipPathUnits="userSpaceOnUse"
       id="clipPath328">
      <path
         d="M 0,870.236 H 623.622 V 0 H 0 Z"
         transform="translate(-52.371601,-512.99511)"
         id="path328" />
    </clipPath>
    <clipPath
       clipPathUnits="userSpaceOnUse"
       id="clipPath330">
      <path
         d="M 0,870.236 H 623.622 V 0 H 0 Z"
         transform="translate(-44.049301,-515.67531)"
         id="path330" />
    </clipPath>
    <clipPath
       clipPathUnits="userSpaceOnUse"
       id="clipPath332">
      <path
         d="M 0,870.236 H 623.622 V 0 H 0 Z"
         transform="translate(-44.049301,-515.67531)"
         id="path332" />
    </clipPath>
    <clipPath
       clipPathUnits="userSpaceOnUse"
       id="clipPath62">
      <path
         d="M 0,870.236 H 623.622 V 0 H 0 Z"
         transform="translate(-362.04961,-521.22192)"
         id="path62" />
    </clipPath>
    <clipPath
       clipPathUnits="userSpaceOnUse"
       id="clipPath64">
      <path
         d="M 0,870.236 H 623.622 V 0 H 0 Z"
         transform="translate(-346.73911,-530.60491)"
         id="path64" />
    </clipPath>
    <clipPath
       clipPathUnits="userSpaceOnUse"
       id="clipPath66">
      <path
         d="M 0,870.236 H 623.622 V 0 H 0 Z"
         transform="translate(-354.04021,-539.73021)"
         id="path66" />
    </clipPath>
    <clipPath
       clipPathUnits="userSpaceOnUse"
       id="clipPath68">
      <path
         d="M 0,870.236 H 623.622 V 0 H 0 Z"
         transform="translate(-354.48601,-512.45941)"
         id="path68" />
    </clipPath>
    <clipPath
       clipPathUnits="userSpaceOnUse"
       id="clipPath70">
      <path
         d="M 0,870.236 H 623.622 V 0 H 0 Z"
         transform="translate(-361.37911,-523.76592)"
         id="path70" />
    </clipPath>
    <clipPath
       clipPathUnits="userSpaceOnUse"
       id="clipPath72">
      <path
         d="M 0,870.236 H 623.622 V 0 H 0 Z"
         transform="translate(-335.28851,-538.69761)"
         id="path72" />
    </clipPath>
    <clipPath
       clipPathUnits="userSpaceOnUse"
       id="clipPath74">
      <path
         d="M 0,870.236 H 623.622 V 0 H 0 Z"
         transform="translate(-355.38421,-538.69701)"
         id="path74" />
    </clipPath>
    <clipPath
       clipPathUnits="userSpaceOnUse"
       id="clipPath76">
      <path
         d="M 0,870.236 H 623.622 V 0 H 0 Z"
         transform="translate(-334.83901,-520.76382)"
         id="path76" />
    </clipPath>
    <clipPath
       clipPathUnits="userSpaceOnUse"
       id="clipPath78">
      <path
         d="M 0,870.236 H 623.622 V 0 H 0 Z"
         transform="translate(-355.59631,-526.70682)"
         id="path78" />
    </clipPath>
    <clipPath
       clipPathUnits="userSpaceOnUse"
       id="clipPath80">
      <path
         d="M 0,870.236 H 623.622 V 0 H 0 Z"
         transform="translate(-336.34281,-520.78591)"
         id="path80" />
    </clipPath>
    <clipPath
       clipPathUnits="userSpaceOnUse"
       id="clipPath82">
      <path
         d="M 0,870.236 H 623.622 V 0 H 0 Z"
         transform="translate(-351.77731,-526.83252)"
         id="path82" />
    </clipPath>
    <clipPath
       clipPathUnits="userSpaceOnUse"
       id="clipPath2">
      <path
         d="M 0,870.236 H 623.622 V 0 H 0 Z"
         transform="translate(-73.429302,-421.64061)"
         id="path2" />
    </clipPath>
    <clipPath
       clipPathUnits="userSpaceOnUse"
       id="clipPath4">
      <path
         d="M 0,870.236 H 623.622 V 0 H 0 Z"
         transform="translate(-73.429302,-422.73021)"
         id="path4" />
    </clipPath>
    <clipPath
       clipPathUnits="userSpaceOnUse"
       id="clipPath6">
      <path
         d="M 0,870.236 H 623.622 V 0 H 0 Z"
         transform="translate(-45.587501,-434.74521)"
         id="path6" />
    </clipPath>
    <clipPath
       clipPathUnits="userSpaceOnUse"
       id="clipPath8">
      <path
         d="M 0,870.236 H 623.622 V 0 H 0 Z"
         transform="translate(-42.165901,-412.06531)"
         id="path8" />
    </clipPath>
    <clipPath
       clipPathUnits="userSpaceOnUse"
       id="clipPath10">
      <path
         d="M 0,870.236 H 623.622 V 0 H 0 Z"
         transform="translate(-57.034201,-408.61671)"
         id="path10" />
    </clipPath>
    <clipPath
       clipPathUnits="userSpaceOnUse"
       id="clipPath12">
      <path
         d="M 0,870.236 H 623.622 V 0 H 0 Z"
         transform="translate(-63.766202,-433.98471)"
         id="path12" />
    </clipPath>
    <clipPath
       clipPathUnits="userSpaceOnUse"
       id="clipPath14">
      <path
         d="M 0,870.236 H 623.622 V 0 H 0 Z"
         transform="translate(-34.775701,-424.79791)"
         id="path14" />
    </clipPath>
    <clipPath
       clipPathUnits="userSpaceOnUse"
       id="clipPath16">
      <path
         d="M 0,870.236 H 623.622 V 0 H 0 Z"
         transform="translate(-54.069601,-418.12171)"
         id="path16" />
    </clipPath>
    <clipPath
       clipPathUnits="userSpaceOnUse"
       id="clipPath18">
      <path
         d="M 0,870.236 H 623.622 V 0 H 0 Z"
         transform="translate(-54.069601,-418.12171)"
         id="path18" />
    </clipPath>
    <clipPath
       clipPathUnits="userSpaceOnUse"
       id="clipPath20">
      <path
         d="M 0,870.236 H 623.622 V 0 H 0 Z"
         transform="translate(-64.945202,-425.67851)"
         id="path20" />
    </clipPath>
    <clipPath
       clipPathUnits="userSpaceOnUse"
       id="clipPath22">
      <path
         d="M 0,870.236 H 623.622 V 0 H 0 Z"
         transform="translate(-328.28201,-424.36241)"
         id="path22" />
    </clipPath>
    <clipPath
       clipPathUnits="userSpaceOnUse"
       id="clipPath24">
      <path
         d="M 0,870.236 H 623.622 V 0 H 0 Z"
         transform="translate(-328.28201,-424.36241)"
         id="path24" />
    </clipPath>
    <clipPath
       clipPathUnits="userSpaceOnUse"
       id="clipPath26">
      <path
         d="M 0,870.236 H 623.622 V 0 H 0 Z"
         transform="translate(-348.92031,-445.46101)"
         id="path26" />
    </clipPath>
    <clipPath
       clipPathUnits="userSpaceOnUse"
       id="clipPath28">
      <path
         d="M 0,870.236 H 623.622 V 0 H 0 Z"
         transform="translate(-328.28201,-426.89421)"
         id="path28" />
    </clipPath>
    <clipPath
       clipPathUnits="userSpaceOnUse"
       id="clipPath30">
      <path
         d="M 0,870.236 H 623.622 V 0 H 0 Z"
         transform="translate(-360.81171,-407.49781)"
         id="path30" />
    </clipPath>
    <clipPath
       clipPathUnits="userSpaceOnUse"
       id="clipPath32">
      <path
         d="M 0,870.236 H 623.622 V 0 H 0 Z"
         transform="translate(-364.87861,-424.82531)"
         id="path32" />
    </clipPath>
    <clipPath
       clipPathUnits="userSpaceOnUse"
       id="clipPath34">
      <path
         d="M 0,870.236 H 623.622 V 0 H 0 Z"
         transform="translate(-336.50371,-428.48041)"
         id="path34" />
    </clipPath>
    <clipPath
       clipPathUnits="userSpaceOnUse"
       id="clipPath36">
      <path
         d="M 0,870.236 H 623.622 V 0 H 0 Z"
         transform="translate(-366.25811,-421.92021)"
         id="path36" />
    </clipPath>
    <clipPath
       clipPathUnits="userSpaceOnUse"
       id="clipPath38">
      <path
         d="M 0,870.236 H 623.622 V 0 H 0 Z"
         transform="translate(-343.31311,-407.49621)"
         id="path38" />
    </clipPath>
    <clipPath
       clipPathUnits="userSpaceOnUse"
       id="clipPath40">
      <path
         d="M 0,870.236 H 623.622 V 0 H 0 Z"
         transform="translate(-360.81171,-407.49781)"
         id="path40" />
    </clipPath>
    <clipPath
       clipPathUnits="userSpaceOnUse"
       id="clipPath42">
      <path
         d="M 0,870.236 H 623.622 V 0 H 0 Z"
         transform="translate(-362.65741,-428.81491)"
         id="path42" />
    </clipPath>
    <clipPath
       clipPathUnits="userSpaceOnUse"
       id="clipPath44">
      <path
         d="M 0,870.236 H 623.622 V 0 H 0 Z"
         transform="translate(-343.31311,-407.49621)"
         id="path44" />
    </clipPath>
    <clipPath
       clipPathUnits="userSpaceOnUse"
       id="clipPath46">
      <path
         d="M 0,870.236 H 623.622 V 0 H 0 Z"
         transform="translate(-364.87861,-424.82531)"
         id="path46" />
    </clipPath>
    <clipPath
       clipPathUnits="userSpaceOnUse"
       id="clipPath48">
      <path
         d="M 0,870.236 H 623.622 V 0 H 0 Z"
         transform="translate(-353.83071,-410.76821)"
         id="path48" />
    </clipPath>
    <clipPath
       clipPathUnits="userSpaceOnUse"
       id="clipPath50">
      <path
         d="M 0,870.236 H 623.622 V 0 H 0 Z"
         transform="translate(-351.84361,-423.84391)"
         id="path50" />
    </clipPath>
    <clipPath
       clipPathUnits="userSpaceOnUse"
       id="clipPath52">
      <path
         d="M 0,870.236 H 623.622 V 0 H 0 Z"
         transform="translate(-340.71391,-412.72231)"
         id="path52" />
    </clipPath>
    <clipPath
       clipPathUnits="userSpaceOnUse"
       id="clipPath54">
      <path
         d="M 0,870.236 H 623.622 V 0 H 0 Z"
         transform="translate(-356.28211,-412.09551)"
         id="path54" />
    </clipPath>
    <clipPath
       clipPathUnits="userSpaceOnUse"
       id="clipPath56">
      <path
         d="M 0,870.236 H 623.622 V 0 H 0 Z"
         transform="translate(-356.28211,-412.09551)"
         id="path56" />
    </clipPath>
    <clipPath
       clipPathUnits="userSpaceOnUse"
       id="clipPath58">
      <path
         d="M 0,870.236 H 623.622 V 0 H 0 Z"
         transform="translate(-347.60001,-421.27821)"
         id="path58" />
    </clipPath>
    <clipPath
       clipPathUnits="userSpaceOnUse"
       id="clipPath60">
      <path
         d="M 0,870.236 H 623.622 V 0 H 0 Z"
         transform="translate(-347.60001,-421.27821)"
         id="path60" />
    </clipPath>
  </defs>
  <g
     inkscape:label="Calque 1"
     inkscape:groupmode="layer"
     id="layer1"
     transform="translate(-1.8617775,0.10487684)">
    <path
       id="path21"
       d="M 0,0 V 2.378 C 0.048,2.43 0.048,2.481 0,2.532 v 0.383 c 0.083,0.144 0.026,0.3 0.039,0.449 0.074,0.816 0.685,1.473 1.539,1.63 0.554,0.101 1.109,0.194 1.665,0.275 0.278,0.04 0.42,0.175 0.485,0.452 0.33,1.407 0.931,2.705 1.638,3.956 0.147,0.26 0.151,0.465 -0.025,0.701 -0.313,0.42 -0.613,0.85 -0.916,1.278 -0.557,0.785 -0.537,1.704 0.056,2.449 0.751,0.944 1.609,1.782 2.546,2.538 0.688,0.555 1.628,0.581 2.356,0.073 0.44,-0.307 0.88,-0.616 1.309,-0.939 0.242,-0.183 0.454,-0.202 0.733,-0.043 1.25,0.709 2.549,1.308 3.956,1.637 0.279,0.065 0.409,0.213 0.449,0.488 0.072,0.493 0.16,0.984 0.244,1.476 0.197,1.158 0.794,1.683 1.967,1.724 0.051,0.002 0.102,10e-4 0.142,0.04 h 1.995 c 0.153,-0.063 0.307,-0.063 0.46,0 h 0.384 c 0.183,-0.085 0.377,-0.024 0.565,-0.045 0.831,-0.091 1.425,-0.645 1.597,-1.52 0.107,-0.539 0.193,-1.083 0.271,-1.627 0.044,-0.307 0.192,-0.465 0.499,-0.536 1.369,-0.319 2.631,-0.911 3.849,-1.594 0.32,-0.179 0.561,-0.162 0.837,0.05 0.396,0.303 0.807,0.586 1.216,0.871 0.784,0.547 1.704,0.521 2.45,-0.083 0.916,-0.742 1.756,-1.562 2.491,-2.486 0.609,-0.766 0.631,-1.676 0.067,-2.484 C 34.571,11.226 34.277,10.807 33.971,10.397 33.787,10.151 33.785,9.932 33.939,9.66 34.634,8.431 35.215,7.152 35.551,5.776 35.63,5.452 35.803,5.31 36.123,5.265 36.616,5.196 37.108,5.109 37.6,5.033 38.48,4.897 39.316,4.105 39.3,3.027 39.283,1.931 39.394,0.825 39.258,-0.262 39.176,-0.913 39.22,-1.52 39.303,-2.16 c 0.192,-1.485 -0.714,-2.123 -1.543,-2.341 -0.645,-0.17 -1.205,0.055 -1.739,0.398 -0.153,0.098 -0.306,0.33 -0.483,0.229 -0.142,-0.081 -0.054,-0.332 -0.054,-0.506 -0.003,-3.874 -0.005,-7.748 0,-11.622 10e-4,-0.659 -0.184,-1.223 -0.658,-1.699 -0.379,-0.381 -0.823,-0.523 -1.348,-0.523 -3.427,0.007 -6.853,0.004 -10.279,0.004 -5.753,0 -11.507,0.025 -17.259,-0.019 -1.326,-0.01 -2.155,1.106 -2.149,2.184 0.023,3.924 0.01,7.849 0.007,11.774 0,0.148 0.042,0.304 -0.063,0.476 C 3.481,-3.926 3.268,-4.108 3.027,-4.243 2.079,-4.776 1.119,-4.612 0.391,-3.812 0.134,-3.528 0.067,-3.188 0,-2.839 v 0.844 C 0.323,-1.33 0.05,-0.665 0,0"
       style="fill:#050606;fill-opacity:1;fill-rule:nonzero;stroke:none"
       transform="matrix(1.3491681,0,0,-1.3491681,4.4477595,28.47716)"
       clip-path="url(#clipPath22)" />
    <path
       id="path23"
       d="M 0,0 C 0.142,-0.38 0.111,-0.812 0.365,-1.162 0.435,-1.258 0.299,-1.337 0.26,-1.425 0.175,-1.616 0.087,-1.805 0,-1.995 Z"
       style="fill:#fbfafb;fill-opacity:1;fill-rule:nonzero;stroke:none"
       transform="matrix(1.3491681,0,0,-1.3491681,4.4477595,28.47716)"
       clip-path="url(#clipPath24)" />
    <path
       id="path25"
       d="M 0,0 C -0.153,-0.121 -0.307,-0.113 -0.46,0 Z"
       style="fill:#1c1c21;fill-opacity:1;fill-rule:nonzero;stroke:none"
       transform="matrix(1.3491681,0,0,-1.3491681,32.292301,0.01160843)"
       clip-path="url(#clipPath26)" />
    <path
       id="path27"
       d="M 0,0 C 0.091,-0.051 0.078,-0.102 0,-0.153 Z"
       style="fill:#3c3940;fill-opacity:1;fill-rule:nonzero;stroke:none"
       transform="matrix(1.3491681,0,0,-1.3491681,4.4477595,25.061339)"
       clip-path="url(#clipPath28)" />
    <path
       id="path29"
       d="m 0,0 c -1.623,-0.004 -3.246,-0.01 -4.869,-0.011 -3.144,-0.002 -6.289,-0.001 -9.433,-0.001 -0.553,0 -0.553,0 -0.553,0.573 0,2.811 0.003,5.623 -10e-4,8.435 -0.002,1.089 -0.546,1.83 -1.512,2.068 -0.17,0.042 -0.353,0.05 -0.53,0.05 -1.688,0.004 -3.375,0.006 -5.062,10e-4 -1.241,-0.003 -2.054,-0.821 -2.055,-2.066 -0.003,-2.901 -0.005,-5.803 0.005,-8.704 0.001,-0.271 -0.041,-0.377 -0.346,-0.365 -0.702,0.026 -1.406,0.006 -2.108,0.009 -0.58,0.002 -0.832,0.238 -0.832,0.804 -0.003,4.384 -0.001,8.768 -0.006,13.152 0,0.185 0.053,0.3 0.212,0.404 4.585,3.026 9.168,6.057 13.751,9.086 0.02,0.013 0.046,0.017 0.07,0.025 0.214,0.044 0.364,-0.089 0.521,-0.194 2.239,-1.503 4.495,-2.978 6.746,-4.462 1.942,-1.28 3.861,-2.595 5.828,-3.835 0.38,-0.239 0.52,-0.531 0.519,-0.977 C 0.333,9.661 0.339,5.329 0.335,0.997 0.335,0.634 0.379,0.242 0,0"
       style="fill:#f3f3f1;fill-opacity:1;fill-rule:nonzero;stroke:none"
       transform="matrix(1.3491681,0,0,-1.3491681,48.3358,51.230348)"
       clip-path="url(#clipPath30)" />
    <path
       id="path31"
       d="m 0,0 c -1.279,0.841 -2.557,1.685 -3.839,2.521 -0.128,0.083 -0.143,0.189 -0.163,0.319 -0.439,2.908 -1.673,5.426 -3.776,7.484 -2.283,2.233 -5.029,3.475 -8.225,3.725 -6.365,0.497 -12.308,-3.793 -13.734,-10.234 -0.033,-0.149 -0.093,-0.301 -0.088,-0.449 0.023,-0.599 -0.312,-0.916 -0.789,-1.218 -1.423,-0.901 -2.815,-1.851 -4.221,-2.78 -0.327,-0.216 -0.345,-0.197 -0.384,0.198 -0.094,0.97 -0.085,1.939 0.003,2.909 0.042,0.46 0.161,0.601 0.616,0.676 0.755,0.125 1.509,0.255 2.264,0.375 0.356,0.057 0.575,0.242 0.653,0.6 0.391,1.814 1.088,3.501 2.1,5.058 0.198,0.304 0.177,0.597 -0.033,0.888 -0.457,0.631 -0.903,1.27 -1.366,1.896 -0.226,0.306 -0.216,0.566 0.032,0.858 0.672,0.791 1.415,1.509 2.198,2.188 0.264,0.229 0.516,0.228 0.794,0.025 0.629,-0.46 1.269,-0.904 1.897,-1.365 0.318,-0.233 0.622,-0.247 0.953,-0.032 1.524,0.989 3.175,1.677 4.95,2.06 0.42,0.09 0.624,0.323 0.682,0.751 0.102,0.745 0.254,1.483 0.363,2.227 0.057,0.385 0.265,0.546 0.637,0.576 1.009,0.082 2.016,0.085 3.024,-0.002 0.428,-0.037 0.579,-0.167 0.651,-0.6 0.126,-0.767 0.255,-1.534 0.379,-2.302 0.056,-0.339 0.238,-0.554 0.58,-0.627 1.814,-0.389 3.502,-1.084 5.06,-2.093 0.321,-0.208 0.618,-0.185 0.921,0.034 0.568,0.412 1.142,0.816 1.714,1.224 0.201,0.092 0.339,-0.015 0.475,-0.144 0.493,-0.466 0.95,-0.965 1.363,-1.503 0.458,-0.598 0.467,-1.098 0.026,-1.72 -0.355,-0.5 -0.699,-1.01 -1.08,-1.49 C -5.594,9.741 -5.619,9.503 -5.41,9.177 -4.532,7.808 -3.947,6.312 -3.563,4.737 -3.482,4.401 -3.337,4.236 -2.981,4.206 -2.723,4.184 -2.436,4.192 -2.221,3.99 -2.053,3.694 -1.812,3.544 -1.461,3.51 -1.048,3.47 -0.641,3.367 -0.232,3.292 0.028,3.151 0.082,2.898 0.102,2.641 0.156,1.93 0.229,1.218 0.191,0.503 0.181,0.317 0.217,0.109 0,0"
       style="fill:#909392;fill-opacity:1;fill-rule:nonzero;stroke:none"
       transform="matrix(1.3491681,0,0,-1.3491681,53.822728,27.85263)"
       clip-path="url(#clipPath32)" />
    <path
       id="path33"
       d="M 0,0 C 0.88,4.509 5.056,8.692 10.489,9.075 17.317,9.556 21.912,4.604 22.836,0.051 22.661,0.084 22.538,0.192 22.407,0.278 19.16,2.428 15.91,4.574 12.668,6.733 11.84,7.284 11.043,7.307 10.21,6.753 6.945,4.584 3.674,2.422 0.405,0.258 0.289,0.182 0.171,0.109 0,0"
       style="fill:#616467;fill-opacity:1;fill-rule:nonzero;stroke:none"
       transform="matrix(1.3491681,0,0,-1.3491681,15.540218,22.921293)"
       clip-path="url(#clipPath34)" />
    <path
       id="path35"
       d="m 0,0 c -0.032,-0.23 -0.111,-0.451 -0.347,-0.584 -0.253,-0.144 -0.488,-0.095 -0.718,0.058 -0.979,0.649 -1.958,1.297 -2.938,1.944 -4.579,3.026 -9.162,6.048 -13.735,9.083 -0.42,0.279 -0.756,0.287 -1.182,0.004 -5.511,-3.655 -11.035,-7.29 -16.543,-10.949 -0.655,-0.435 -1.085,-0.111 -1.181,0.302 -0.09,0.382 0.114,0.631 0.411,0.828 0.99,0.655 1.98,1.31 2.97,1.965 4.79,3.169 9.583,6.334 14.367,9.513 0.396,0.262 0.708,0.275 1.109,0.009 C -12.033,8.354 -6.271,4.546 -0.51,0.738 -0.242,0.561 -0.025,0.363 0,0"
       style="fill:#f03a3d;fill-opacity:1;fill-rule:nonzero;stroke:none"
       transform="matrix(1.3491681,0,0,-1.3491681,55.683902,31.772103)"
       clip-path="url(#clipPath36)" />
    <path
       id="path37"
       d="m 0,0 c -1.635,-0.003 -3.269,-0.003 -4.904,-0.014 -0.225,-10e-4 -0.312,0.053 -0.311,0.297 0.007,2.925 0.002,5.849 0.006,8.774 10e-4,0.478 0.263,0.748 0.731,0.749 C -3.035,9.81 -1.592,9.803 -0.149,9.8 0.021,9.724 0.087,9.579 0.112,9.406 0.132,9.266 0.131,9.126 0.131,8.986 0.132,6.197 0.133,3.407 0.129,0.617 0.129,0.405 0.17,0.179 0,0"
       style="fill:#97482d;fill-opacity:1;fill-rule:nonzero;stroke:none"
       transform="matrix(1.3491681,0,0,-1.3491681,24.727244,51.232502)"
       clip-path="url(#clipPath38)" />
    <path
       id="path39"
       d="m 0,0 c 0.165,0.268 0.232,0.556 0.232,0.873 -0.005,4.423 -0.006,8.846 0.003,13.268 0.001,0.303 -0.087,0.486 -0.345,0.656 -3.184,2.094 -6.36,4.202 -9.541,6.302 -1.202,0.794 -2.412,1.575 -3.618,2.361 0.236,0.271 0.455,0.239 0.75,0.043 4.57,-3.037 9.146,-6.063 13.727,-9.082 C 1.439,14.269 1.526,14.116 1.526,13.84 1.517,9.544 1.52,5.248 1.519,0.952 1.519,0.19 1.321,-0.012 0.574,-0.011 0.383,-0.011 0.191,-0.004 0,0"
       style="fill:#c6d3d4;fill-opacity:1;fill-rule:nonzero;stroke:none"
       transform="matrix(1.3491681,0,0,-1.3491681,48.3358,51.230348)"
       clip-path="url(#clipPath40)" />
    <path
       id="path41"
       d="m 0,0 c -0.351,0.051 -0.702,0.113 -1.055,0.151 -0.253,0.027 -0.289,0.205 -0.334,0.397 -0.289,1.233 -0.714,2.418 -1.287,3.547 -0.213,0.42 -0.447,0.832 -0.707,1.224 -0.146,0.221 -0.13,0.375 0.021,0.577 0.381,0.51 0.738,1.038 1.114,1.551 0.572,0.778 0.58,1.163 -0.035,1.909 -0.405,0.491 -0.841,0.958 -1.306,1.395 -0.098,0.093 -0.198,0.16 -0.337,0.149 0.588,0.428 0.622,0.425 1.172,-0.046 0.709,-0.608 1.371,-1.261 1.971,-1.978 C -0.465,8.497 -0.451,8.36 -0.728,7.965 -1.138,7.381 -1.555,6.8 -1.971,6.219 -2.328,5.719 -2.34,5.554 -2.016,5.046 -1.045,3.524 -0.384,1.877 -0.007,0.115 0.001,0.078 -0.002,0.038 0,0"
       style="fill:#616467;fill-opacity:1;fill-rule:nonzero;stroke:none"
       transform="matrix(1.3491681,0,0,-1.3491681,50.825956,22.469997)"
       clip-path="url(#clipPath42)" />
    <path
       id="path43"
       d="M 0,0 C 0.002,3.099 0.004,6.199 0.01,9.298 0.01,9.488 -0.06,9.644 -0.149,9.8 0.119,9.802 0.387,9.819 0.654,9.804 1.088,9.781 1.312,9.549 1.312,9.121 1.315,6.186 1.311,3.25 1.318,0.315 1.319,0.068 1.251,-0.031 0.995,-0.015 0.664,0.005 0.332,-0.004 0,0"
       style="fill:#6b3322;fill-opacity:1;fill-rule:nonzero;stroke:none"
       transform="matrix(1.3491681,0,0,-1.3491681,24.727244,51.232502)"
       clip-path="url(#clipPath44)" />
    <path
       id="path45"
       d="M 0,0 C 0.147,0.615 0.1,1.241 0.042,1.854 -0.004,2.336 0.088,2.858 -0.232,3.292 0.133,3.237 0.501,3.198 0.861,3.123 1.148,3.064 1.274,2.845 1.298,2.563 1.384,1.543 1.414,0.524 1.304,-0.496 1.278,-0.733 1.223,-0.84 0.98,-0.664 0.66,-0.433 0.327,-0.221 0,0"
       style="fill:#616467;fill-opacity:1;fill-rule:nonzero;stroke:none"
       transform="matrix(1.3491681,0,0,-1.3491681,53.822728,27.85263)"
       clip-path="url(#clipPath46)" />
    <path
       id="path47"
       d="m 0,0 c -1.061,0 -2.122,-0.005 -3.183,0.001 -1.24,0.007 -2.049,0.783 -2.069,2.018 -0.02,1.266 -0.019,2.532 0,3.797 0.02,1.253 0.833,2.027 2.096,2.029 2.097,0.003 4.194,0.003 6.29,0 C 4.408,7.843 5.216,7.036 5.219,5.769 5.221,4.516 5.223,3.263 5.218,2.01 5.213,0.839 4.399,0.015 3.222,0.002 2.148,-0.009 1.074,0 0,0"
       style="fill:#050607;fill-opacity:1;fill-rule:nonzero;stroke:none"
       transform="matrix(1.3491681,0,0,-1.3491681,38.917256,46.818023)"
       clip-path="url(#clipPath48)" />
    <path
       id="path49"
       d="m 0,0 c -0.006,-2.162 -1.759,-3.919 -3.913,-3.925 -2.166,-0.005 -3.934,1.772 -3.929,3.948 0.005,2.159 1.754,3.913 3.915,3.926 C -1.767,3.961 0.006,2.178 0,0"
       style="fill:#050607;fill-opacity:1;fill-rule:nonzero;stroke:none"
       transform="matrix(1.3491681,0,0,-1.3491681,36.236323,29.17671)"
       clip-path="url(#clipPath50)" />
    <path
       id="path51"
       d="m 0,0 c -0.003,-0.383 -0.268,-0.643 -0.654,-0.642 -0.381,0.002 -0.658,0.276 -0.651,0.648 0.006,0.353 0.317,0.663 0.661,0.66 C -0.284,0.662 0.003,0.365 0,0"
       style="fill:#070707;fill-opacity:1;fill-rule:nonzero;stroke:none"
       transform="matrix(1.3491681,0,0,-1.3491681,21.220486,44.181618)"
       clip-path="url(#clipPath52)" />
    <path
       id="path53"
       d="m 0,0 c -1.917,-0.004 -3.834,-0.012 -5.751,-0.009 -0.382,10e-4 -0.621,0.242 -0.624,0.629 -0.009,1.316 -0.01,2.633 0,3.949 0.003,0.397 0.255,0.637 0.661,0.637 C -3.81,5.209 -1.906,5.201 -0.002,5.198 0.206,5.049 0.262,4.824 0.265,4.593 0.288,3.246 0.285,1.899 0.267,0.553 0.264,0.337 0.23,0.116 0,0"
       style="fill:#4bc3d2;fill-opacity:1;fill-rule:nonzero;stroke:none"
       transform="matrix(1.3491681,0,0,-1.3491681,42.224605,45.027276)"
       clip-path="url(#clipPath54)" />
    <path
       id="path55"
       d="M 0,0 C 0.119,0.232 0.161,0.477 0.159,0.739 0.153,1.914 0.15,3.089 0.161,4.265 0.164,4.59 0.123,4.899 -0.002,5.198 0.253,5.201 0.508,5.215 0.762,5.207 1.171,5.195 1.451,4.947 1.455,4.546 c 0.012,-1.3 0.013,-2.6 0,-3.899 C 1.451,0.239 1.179,0 0.764,-0.01 0.509,-0.017 0.255,-0.004 0,0"
       style="fill:#32858f;fill-opacity:1;fill-rule:nonzero;stroke:none"
       transform="matrix(1.3491681,0,0,-1.3491681,42.224605,45.027276)"
       clip-path="url(#clipPath56)" />
    <path
       id="path57"
       d="M 0,0 C -1.383,0.135 -2.405,1.405 -2.283,2.837 -2.168,4.191 -0.925,5.265 0.399,5.156 1.279,4.648 1.614,3.809 1.719,2.869 1.824,1.924 1.512,1.087 0.902,0.358 0.663,0.073 0.38,-0.081 0,0"
       style="fill:#4bc3d2;fill-opacity:1;fill-rule:nonzero;stroke:none"
       transform="matrix(1.3491681,0,0,-1.3491681,30.510997,32.638267)"
       clip-path="url(#clipPath58)" />
    <path
       id="path59"
       d="M 0,0 C 0.384,-0.025 0.626,0.187 0.86,0.464 2.032,1.855 1.85,3.93 0.466,5.065 0.437,5.088 0.421,5.126 0.399,5.156 1.68,5.184 2.815,4.131 2.929,2.812 3.044,1.476 2.058,0.179 0.785,0.019 0.528,-0.014 0.264,-0.149 0,0"
       style="fill:#32858f;fill-opacity:1;fill-rule:nonzero;stroke:none"
       transform="matrix(1.3491681,0,0,-1.3491681,30.510997,32.638267)"
       clip-path="url(#clipPath60)" />
  </g>
</svg>
