<?xml version="1.0" encoding="UTF-8" standalone="no"?>
<!-- Created with Inkscape (http://www.inkscape.org/) -->

<svg
   width="58.880001"
   height="53.098"
   viewBox="0 0 58.880001 53.098"
   version="1.1"
   id="svg1"
   inkscape:version="1.3 (0e150ed6c4, 2023-07-21)"
   sodipodi:docname="maisonDPE.svg"
   xmlns:inkscape="http://www.inkscape.org/namespaces/inkscape"
   xmlns:sodipodi="http://sodipodi.sourceforge.net/DTD/sodipodi-0.dtd"
   xmlns="http://www.w3.org/2000/svg"
   xmlns:svg="http://www.w3.org/2000/svg">
  <sodipodi:namedview
     id="namedview1"
     pagecolor="#ffffff"
     bordercolor="#000000"
     borderopacity="0.25"
     inkscape:showpageshadow="2"
     inkscape:pageopacity="0.0"
     inkscape:pagecheckerboard="0"
     inkscape:deskcolor="#d1d1d1"
     inkscape:document-units="mm"
     inkscape:zoom="5.5375421"
     inkscape:cx="31.692761"
     inkscape:cy="13.814793"
     inkscape:window-width="1920"
     inkscape:window-height="991"
     inkscape:window-x="-9"
     inkscape:window-y="-9"
     inkscape:window-maximized="1"
     inkscape:current-layer="layer1" />
  <defs
     id="defs1">
    <clipPath
       clipPathUnits="userSpaceOnUse"
       id="clipPath292">
      <path
         d="M 0,870.236 H 623.622 V 0 H 0 Z"
         transform="translate(-79.402402,-508.51422)"
         id="path292" />
    </clipPath>
    <clipPath
       clipPathUnits="userSpaceOnUse"
       id="clipPath294">
      <path
         d="M 0,870.236 H 623.622 V 0 H 0 Z"
         transform="translate(-40.134901,-536.37162)"
         id="path294" />
    </clipPath>
    <clipPath
       clipPathUnits="userSpaceOnUse"
       id="clipPath296">
      <path
         d="M 0,870.236 H 623.622 V 0 H 0 Z"
         transform="translate(-65.220202,-527.41092)"
         id="path296" />
    </clipPath>
    <clipPath
       clipPathUnits="userSpaceOnUse"
       id="clipPath298">
      <path
         d="M 0,870.236 H 623.622 V 0 H 0 Z"
         transform="translate(-64.219502,-532.66971)"
         id="path298" />
    </clipPath>
    <clipPath
       clipPathUnits="userSpaceOnUse"
       id="clipPath300">
      <path
         d="M 0,870.236 H 623.622 V 0 H 0 Z"
         transform="translate(-40.134901,-536.37162)"
         id="path300" />
    </clipPath>
    <clipPath
       clipPathUnits="userSpaceOnUse"
       id="clipPath302">
      <path
         d="M 0,870.236 H 623.622 V 0 H 0 Z"
         transform="translate(-60.858202,-520.84851)"
         id="path302" />
    </clipPath>
    <clipPath
       clipPathUnits="userSpaceOnUse"
       id="clipPath304">
      <path
         d="M 0,870.236 H 623.622 V 0 H 0 Z"
         transform="translate(-57.442601,-513.71451)"
         id="path304" />
    </clipPath>
    <clipPath
       clipPathUnits="userSpaceOnUse"
       id="clipPath306">
      <path
         d="M 0,870.236 H 623.622 V 0 H 0 Z"
         transform="translate(-60.879802,-524.01091)"
         id="path306" />
    </clipPath>
    <clipPath
       clipPathUnits="userSpaceOnUse"
       id="clipPath308">
      <path
         d="M 0,870.236 H 623.622 V 0 H 0 Z"
         transform="translate(-69.353902,-507.31662)"
         id="path308" />
    </clipPath>
    <clipPath
       clipPathUnits="userSpaceOnUse"
       id="clipPath310">
      <path
         d="M 0,870.236 H 623.622 V 0 H 0 Z"
         transform="translate(-68.405602,-515.33952)"
         id="path310" />
    </clipPath>
    <clipPath
       clipPathUnits="userSpaceOnUse"
       id="clipPath312">
      <path
         d="M 0,870.236 H 623.622 V 0 H 0 Z"
         transform="translate(-67.368002,-520.59552)"
         id="path312" />
    </clipPath>
    <clipPath
       clipPathUnits="userSpaceOnUse"
       id="clipPath314">
      <path
         d="M 0,870.236 H 623.622 V 0 H 0 Z"
         transform="translate(-66.362602,-523.08801)"
         id="path314" />
    </clipPath>
    <clipPath
       clipPathUnits="userSpaceOnUse"
       id="clipPath316">
      <path
         d="M 0,870.236 H 623.622 V 0 H 0 Z"
         transform="translate(-40.676601,-526.19431)"
         id="path316" />
    </clipPath>
    <clipPath
       clipPathUnits="userSpaceOnUse"
       id="clipPath318">
      <path
         d="M 0,870.236 H 623.622 V 0 H 0 Z"
         transform="translate(-62.726602,-522.15541)"
         id="path318" />
    </clipPath>
    <clipPath
       clipPathUnits="userSpaceOnUse"
       id="clipPath320">
      <path
         d="M 0,870.236 H 623.622 V 0 H 0 Z"
         transform="translate(-42.732601,-540.50421)"
         id="path320" />
    </clipPath>
    <clipPath
       clipPathUnits="userSpaceOnUse"
       id="clipPath322">
      <path
         d="M 0,870.236 H 623.622 V 0 H 0 Z"
         transform="translate(-65.403701,-531.11301)"
         id="path322" />
    </clipPath>
    <clipPath
       clipPathUnits="userSpaceOnUse"
       id="clipPath324">
      <path
         d="M 0,870.236 H 623.622 V 0 H 0 Z"
         transform="translate(-64.437101,-536.37301)"
         id="path324" />
    </clipPath>
    <clipPath
       clipPathUnits="userSpaceOnUse"
       id="clipPath326">
      <path
         d="M 0,870.236 H 623.622 V 0 H 0 Z"
         transform="translate(-48.097401,-517.73382)"
         id="path326" />
    </clipPath>
    <clipPath
       clipPathUnits="userSpaceOnUse"
       id="clipPath328">
      <path
         d="M 0,870.236 H 623.622 V 0 H 0 Z"
         transform="translate(-52.371601,-512.99511)"
         id="path328" />
    </clipPath>
    <clipPath
       clipPathUnits="userSpaceOnUse"
       id="clipPath330">
      <path
         d="M 0,870.236 H 623.622 V 0 H 0 Z"
         transform="translate(-44.049301,-515.67531)"
         id="path330" />
    </clipPath>
    <clipPath
       clipPathUnits="userSpaceOnUse"
       id="clipPath332">
      <path
         d="M 0,870.236 H 623.622 V 0 H 0 Z"
         transform="translate(-44.049301,-515.67531)"
         id="path332" />
    </clipPath>
    <clipPath
       clipPathUnits="userSpaceOnUse"
       id="clipPath62">
      <path
         d="M 0,870.236 H 623.622 V 0 H 0 Z"
         transform="translate(-362.04961,-521.22192)"
         id="path62" />
    </clipPath>
    <clipPath
       clipPathUnits="userSpaceOnUse"
       id="clipPath64">
      <path
         d="M 0,870.236 H 623.622 V 0 H 0 Z"
         transform="translate(-346.73911,-530.60491)"
         id="path64" />
    </clipPath>
    <clipPath
       clipPathUnits="userSpaceOnUse"
       id="clipPath66">
      <path
         d="M 0,870.236 H 623.622 V 0 H 0 Z"
         transform="translate(-354.04021,-539.73021)"
         id="path66" />
    </clipPath>
    <clipPath
       clipPathUnits="userSpaceOnUse"
       id="clipPath68">
      <path
         d="M 0,870.236 H 623.622 V 0 H 0 Z"
         transform="translate(-354.48601,-512.45941)"
         id="path68" />
    </clipPath>
    <clipPath
       clipPathUnits="userSpaceOnUse"
       id="clipPath70">
      <path
         d="M 0,870.236 H 623.622 V 0 H 0 Z"
         transform="translate(-361.37911,-523.76592)"
         id="path70" />
    </clipPath>
    <clipPath
       clipPathUnits="userSpaceOnUse"
       id="clipPath72">
      <path
         d="M 0,870.236 H 623.622 V 0 H 0 Z"
         transform="translate(-335.28851,-538.69761)"
         id="path72" />
    </clipPath>
    <clipPath
       clipPathUnits="userSpaceOnUse"
       id="clipPath74">
      <path
         d="M 0,870.236 H 623.622 V 0 H 0 Z"
         transform="translate(-355.38421,-538.69701)"
         id="path74" />
    </clipPath>
    <clipPath
       clipPathUnits="userSpaceOnUse"
       id="clipPath76">
      <path
         d="M 0,870.236 H 623.622 V 0 H 0 Z"
         transform="translate(-334.83901,-520.76382)"
         id="path76" />
    </clipPath>
    <clipPath
       clipPathUnits="userSpaceOnUse"
       id="clipPath78">
      <path
         d="M 0,870.236 H 623.622 V 0 H 0 Z"
         transform="translate(-355.59631,-526.70682)"
         id="path78" />
    </clipPath>
    <clipPath
       clipPathUnits="userSpaceOnUse"
       id="clipPath80">
      <path
         d="M 0,870.236 H 623.622 V 0 H 0 Z"
         transform="translate(-336.34281,-520.78591)"
         id="path80" />
    </clipPath>
    <clipPath
       clipPathUnits="userSpaceOnUse"
       id="clipPath82">
      <path
         d="M 0,870.236 H 623.622 V 0 H 0 Z"
         transform="translate(-351.77731,-526.83252)"
         id="path82" />
    </clipPath>
    <clipPath
       clipPathUnits="userSpaceOnUse"
       id="clipPath2">
      <path
         d="M 0,870.236 H 623.622 V 0 H 0 Z"
         transform="translate(-73.429302,-421.64061)"
         id="path2" />
    </clipPath>
    <clipPath
       clipPathUnits="userSpaceOnUse"
       id="clipPath4">
      <path
         d="M 0,870.236 H 623.622 V 0 H 0 Z"
         transform="translate(-73.429302,-422.73021)"
         id="path4" />
    </clipPath>
    <clipPath
       clipPathUnits="userSpaceOnUse"
       id="clipPath6">
      <path
         d="M 0,870.236 H 623.622 V 0 H 0 Z"
         transform="translate(-45.587501,-434.74521)"
         id="path6" />
    </clipPath>
    <clipPath
       clipPathUnits="userSpaceOnUse"
       id="clipPath8">
      <path
         d="M 0,870.236 H 623.622 V 0 H 0 Z"
         transform="translate(-42.165901,-412.06531)"
         id="path8" />
    </clipPath>
    <clipPath
       clipPathUnits="userSpaceOnUse"
       id="clipPath10">
      <path
         d="M 0,870.236 H 623.622 V 0 H 0 Z"
         transform="translate(-57.034201,-408.61671)"
         id="path10" />
    </clipPath>
    <clipPath
       clipPathUnits="userSpaceOnUse"
       id="clipPath12">
      <path
         d="M 0,870.236 H 623.622 V 0 H 0 Z"
         transform="translate(-63.766202,-433.98471)"
         id="path12" />
    </clipPath>
    <clipPath
       clipPathUnits="userSpaceOnUse"
       id="clipPath14">
      <path
         d="M 0,870.236 H 623.622 V 0 H 0 Z"
         transform="translate(-34.775701,-424.79791)"
         id="path14" />
    </clipPath>
    <clipPath
       clipPathUnits="userSpaceOnUse"
       id="clipPath16">
      <path
         d="M 0,870.236 H 623.622 V 0 H 0 Z"
         transform="translate(-54.069601,-418.12171)"
         id="path16" />
    </clipPath>
    <clipPath
       clipPathUnits="userSpaceOnUse"
       id="clipPath18">
      <path
         d="M 0,870.236 H 623.622 V 0 H 0 Z"
         transform="translate(-54.069601,-418.12171)"
         id="path18" />
    </clipPath>
    <clipPath
       clipPathUnits="userSpaceOnUse"
       id="clipPath20">
      <path
         d="M 0,870.236 H 623.622 V 0 H 0 Z"
         transform="translate(-64.945202,-425.67851)"
         id="path20" />
    </clipPath>
    <clipPath
       clipPathUnits="userSpaceOnUse"
       id="clipPath22">
      <path
         d="M 0,870.236 H 623.622 V 0 H 0 Z"
         transform="translate(-328.28201,-424.36241)"
         id="path22" />
    </clipPath>
    <clipPath
       clipPathUnits="userSpaceOnUse"
       id="clipPath24">
      <path
         d="M 0,870.236 H 623.622 V 0 H 0 Z"
         transform="translate(-328.28201,-424.36241)"
         id="path24" />
    </clipPath>
    <clipPath
       clipPathUnits="userSpaceOnUse"
       id="clipPath26">
      <path
         d="M 0,870.236 H 623.622 V 0 H 0 Z"
         transform="translate(-348.92031,-445.46101)"
         id="path26" />
    </clipPath>
    <clipPath
       clipPathUnits="userSpaceOnUse"
       id="clipPath28">
      <path
         d="M 0,870.236 H 623.622 V 0 H 0 Z"
         transform="translate(-328.28201,-426.89421)"
         id="path28" />
    </clipPath>
    <clipPath
       clipPathUnits="userSpaceOnUse"
       id="clipPath30">
      <path
         d="M 0,870.236 H 623.622 V 0 H 0 Z"
         transform="translate(-360.81171,-407.49781)"
         id="path30" />
    </clipPath>
    <clipPath
       clipPathUnits="userSpaceOnUse"
       id="clipPath32">
      <path
         d="M 0,870.236 H 623.622 V 0 H 0 Z"
         transform="translate(-364.87861,-424.82531)"
         id="path32" />
    </clipPath>
    <clipPath
       clipPathUnits="userSpaceOnUse"
       id="clipPath34">
      <path
         d="M 0,870.236 H 623.622 V 0 H 0 Z"
         transform="translate(-336.50371,-428.48041)"
         id="path34" />
    </clipPath>
    <clipPath
       clipPathUnits="userSpaceOnUse"
       id="clipPath36">
      <path
         d="M 0,870.236 H 623.622 V 0 H 0 Z"
         transform="translate(-366.25811,-421.92021)"
         id="path36" />
    </clipPath>
    <clipPath
       clipPathUnits="userSpaceOnUse"
       id="clipPath38">
      <path
         d="M 0,870.236 H 623.622 V 0 H 0 Z"
         transform="translate(-343.31311,-407.49621)"
         id="path38" />
    </clipPath>
    <clipPath
       clipPathUnits="userSpaceOnUse"
       id="clipPath40">
      <path
         d="M 0,870.236 H 623.622 V 0 H 0 Z"
         transform="translate(-360.81171,-407.49781)"
         id="path40" />
    </clipPath>
    <clipPath
       clipPathUnits="userSpaceOnUse"
       id="clipPath42">
      <path
         d="M 0,870.236 H 623.622 V 0 H 0 Z"
         transform="translate(-362.65741,-428.81491)"
         id="path42" />
    </clipPath>
    <clipPath
       clipPathUnits="userSpaceOnUse"
       id="clipPath44">
      <path
         d="M 0,870.236 H 623.622 V 0 H 0 Z"
         transform="translate(-343.31311,-407.49621)"
         id="path44" />
    </clipPath>
    <clipPath
       clipPathUnits="userSpaceOnUse"
       id="clipPath46">
      <path
         d="M 0,870.236 H 623.622 V 0 H 0 Z"
         transform="translate(-364.87861,-424.82531)"
         id="path46" />
    </clipPath>
    <clipPath
       clipPathUnits="userSpaceOnUse"
       id="clipPath48">
      <path
         d="M 0,870.236 H 623.622 V 0 H 0 Z"
         transform="translate(-353.83071,-410.76821)"
         id="path48" />
    </clipPath>
    <clipPath
       clipPathUnits="userSpaceOnUse"
       id="clipPath50">
      <path
         d="M 0,870.236 H 623.622 V 0 H 0 Z"
         transform="translate(-351.84361,-423.84391)"
         id="path50" />
    </clipPath>
    <clipPath
       clipPathUnits="userSpaceOnUse"
       id="clipPath52">
      <path
         d="M 0,870.236 H 623.622 V 0 H 0 Z"
         transform="translate(-340.71391,-412.72231)"
         id="path52" />
    </clipPath>
    <clipPath
       clipPathUnits="userSpaceOnUse"
       id="clipPath54">
      <path
         d="M 0,870.236 H 623.622 V 0 H 0 Z"
         transform="translate(-356.28211,-412.09551)"
         id="path54" />
    </clipPath>
    <clipPath
       clipPathUnits="userSpaceOnUse"
       id="clipPath56">
      <path
         d="M 0,870.236 H 623.622 V 0 H 0 Z"
         transform="translate(-356.28211,-412.09551)"
         id="path56" />
    </clipPath>
    <clipPath
       clipPathUnits="userSpaceOnUse"
       id="clipPath58">
      <path
         d="M 0,870.236 H 623.622 V 0 H 0 Z"
         transform="translate(-347.60001,-421.27821)"
         id="path58" />
    </clipPath>
    <clipPath
       clipPathUnits="userSpaceOnUse"
       id="clipPath60">
      <path
         d="M 0,870.236 H 623.622 V 0 H 0 Z"
         transform="translate(-347.60001,-421.27821)"
         id="path60" />
    </clipPath>
    <clipPath
       clipPathUnits="userSpaceOnUse"
       id="clipPath292-4">
      <path
         d="M 0,870.236 H 623.622 V 0 H 0 Z"
         transform="translate(-79.402402,-508.51422)"
         id="path292-8" />
    </clipPath>
    <clipPath
       clipPathUnits="userSpaceOnUse"
       id="clipPath294-8">
      <path
         d="M 0,870.236 H 623.622 V 0 H 0 Z"
         transform="translate(-40.134901,-536.37162)"
         id="path294-4" />
    </clipPath>
    <clipPath
       clipPathUnits="userSpaceOnUse"
       id="clipPath296-0">
      <path
         d="M 0,870.236 H 623.622 V 0 H 0 Z"
         transform="translate(-65.220202,-527.41092)"
         id="path296-2" />
    </clipPath>
    <clipPath
       clipPathUnits="userSpaceOnUse"
       id="clipPath298-4">
      <path
         d="M 0,870.236 H 623.622 V 0 H 0 Z"
         transform="translate(-64.219502,-532.66971)"
         id="path298-7" />
    </clipPath>
    <clipPath
       clipPathUnits="userSpaceOnUse"
       id="clipPath300-0">
      <path
         d="M 0,870.236 H 623.622 V 0 H 0 Z"
         transform="translate(-40.134901,-536.37162)"
         id="path300-2" />
    </clipPath>
    <clipPath
       clipPathUnits="userSpaceOnUse"
       id="clipPath302-9">
      <path
         d="M 0,870.236 H 623.622 V 0 H 0 Z"
         transform="translate(-60.858202,-520.84851)"
         id="path302-6" />
    </clipPath>
    <clipPath
       clipPathUnits="userSpaceOnUse"
       id="clipPath304-1">
      <path
         d="M 0,870.236 H 623.622 V 0 H 0 Z"
         transform="translate(-57.442601,-513.71451)"
         id="path304-1" />
    </clipPath>
    <clipPath
       clipPathUnits="userSpaceOnUse"
       id="clipPath306-6">
      <path
         d="M 0,870.236 H 623.622 V 0 H 0 Z"
         transform="translate(-60.879802,-524.01091)"
         id="path306-8" />
    </clipPath>
    <clipPath
       clipPathUnits="userSpaceOnUse"
       id="clipPath308-1">
      <path
         d="M 0,870.236 H 623.622 V 0 H 0 Z"
         transform="translate(-69.353902,-507.31662)"
         id="path308-4" />
    </clipPath>
    <clipPath
       clipPathUnits="userSpaceOnUse"
       id="clipPath310-1">
      <path
         d="M 0,870.236 H 623.622 V 0 H 0 Z"
         transform="translate(-68.405602,-515.33952)"
         id="path310-6" />
    </clipPath>
    <clipPath
       clipPathUnits="userSpaceOnUse"
       id="clipPath312-3">
      <path
         d="M 0,870.236 H 623.622 V 0 H 0 Z"
         transform="translate(-67.368002,-520.59552)"
         id="path312-5" />
    </clipPath>
    <clipPath
       clipPathUnits="userSpaceOnUse"
       id="clipPath314-0">
      <path
         d="M 0,870.236 H 623.622 V 0 H 0 Z"
         transform="translate(-66.362602,-523.08801)"
         id="path314-0" />
    </clipPath>
    <clipPath
       clipPathUnits="userSpaceOnUse"
       id="clipPath316-9">
      <path
         d="M 0,870.236 H 623.622 V 0 H 0 Z"
         transform="translate(-40.676601,-526.19431)"
         id="path316-5" />
    </clipPath>
    <clipPath
       clipPathUnits="userSpaceOnUse"
       id="clipPath318-4">
      <path
         d="M 0,870.236 H 623.622 V 0 H 0 Z"
         transform="translate(-62.726602,-522.15541)"
         id="path318-7" />
    </clipPath>
    <clipPath
       clipPathUnits="userSpaceOnUse"
       id="clipPath320-0">
      <path
         d="M 0,870.236 H 623.622 V 0 H 0 Z"
         transform="translate(-42.732601,-540.50421)"
         id="path320-2" />
    </clipPath>
    <clipPath
       clipPathUnits="userSpaceOnUse"
       id="clipPath322-6">
      <path
         d="M 0,870.236 H 623.622 V 0 H 0 Z"
         transform="translate(-65.403701,-531.11301)"
         id="path322-2" />
    </clipPath>
    <clipPath
       clipPathUnits="userSpaceOnUse"
       id="clipPath324-6">
      <path
         d="M 0,870.236 H 623.622 V 0 H 0 Z"
         transform="translate(-64.437101,-536.37301)"
         id="path324-5" />
    </clipPath>
    <clipPath
       clipPathUnits="userSpaceOnUse"
       id="clipPath326-1">
      <path
         d="M 0,870.236 H 623.622 V 0 H 0 Z"
         transform="translate(-48.097401,-517.73382)"
         id="path326-9" />
    </clipPath>
    <clipPath
       clipPathUnits="userSpaceOnUse"
       id="clipPath328-6">
      <path
         d="M 0,870.236 H 623.622 V 0 H 0 Z"
         transform="translate(-52.371601,-512.99511)"
         id="path328-8" />
    </clipPath>
    <clipPath
       clipPathUnits="userSpaceOnUse"
       id="clipPath330-5">
      <path
         d="M 0,870.236 H 623.622 V 0 H 0 Z"
         transform="translate(-44.049301,-515.67531)"
         id="path330-6" />
    </clipPath>
    <clipPath
       clipPathUnits="userSpaceOnUse"
       id="clipPath332-4">
      <path
         d="M 0,870.236 H 623.622 V 0 H 0 Z"
         transform="translate(-44.049301,-515.67531)"
         id="path332-0" />
    </clipPath>
  </defs>
  <g
     inkscape:label="Calque 1"
     inkscape:groupmode="layer"
     id="layer1"
     transform="translate(-1.8349515,-0.20332992)">
    <path
       id="path291"
       d="m 0,0 c -0.65,-0.606 -1.308,-1.204 -1.944,-1.824 -0.215,-0.209 -0.443,-0.281 -0.732,-0.28 -5.046,0.004 -10.091,0.002 -15.137,0.004 -0.578,0 -0.724,0.128 -0.691,0.718 0.023,0.41 -0.084,0.522 -0.509,0.521 -6.829,-0.015 -13.657,-0.011 -20.485,-0.011 -0.682,0 -0.777,0.093 -0.777,0.762 0,3.68 0,7.36 0,11.04 0,0.156 0,0.313 0,0.576 -0.543,-0.541 -1.024,-1.02 -1.504,-1.499 -0.418,-0.416 -0.726,-0.477 -1.272,-0.249 -1.187,0.496 -1.491,2.017 -0.569,2.97 1.17,1.208 2.358,2.399 3.553,3.582 0.243,0.24 0.357,0.482 0.361,0.825 0.029,2.112 0.078,4.225 0.116,6.338 0.012,0.663 0.107,0.76 0.784,0.761 0.719,0 1.438,0.003 2.157,-0.002 0.444,-0.002 0.595,-0.14 0.6,-0.589 0.01,-1.005 0.003,-2.01 0.003,-3.039 0.294,0.012 0.369,0.168 0.47,0.27 2.326,2.349 4.649,4.701 6.973,7.053 0.476,0.482 0.605,0.483 1.084,-0.002 3.083,-3.118 6.167,-6.234 9.243,-9.358 0.207,-0.211 0.411,-0.299 0.709,-0.298 2.961,0.012 5.923,0.002 8.884,0.014 0.359,10e-4 0.627,-0.104 0.88,-0.353 0.532,-0.525 1.09,-1.023 1.631,-1.539 0.332,-0.317 0.331,-0.55 -0.005,-0.87 -0.572,-0.545 -1.159,-1.076 -1.73,-1.623 -0.201,-0.193 -0.423,-0.261 -0.699,-0.26 -1.564,0.009 -3.129,0.004 -4.758,0.004 0.31,-0.401 0.575,-0.652 1.105,-0.64 1.868,0.04 3.737,0.01 5.606,0.021 0.31,0.002 0.548,-0.084 0.769,-0.299 0.536,-0.521 1.091,-1.023 1.634,-1.536 0.404,-0.382 0.406,-0.587 0.011,-0.96 C -4.783,9.715 -5.339,9.215 -5.874,8.694 -6.108,8.467 -6.36,8.379 -6.684,8.38 c -2.918,0.009 -5.836,0.006 -8.755,0.005 -0.204,0 -0.419,0.071 -0.426,-0.295 -0.007,-0.372 0.192,-0.333 0.43,-0.333 3.579,0.003 7.158,-0.002 10.738,0.008 0.326,0.001 0.574,-0.083 0.807,-0.311 0.524,-0.513 1.071,-1.002 1.604,-1.505 0.432,-0.407 0.433,-0.597 0.013,-0.99 C -2.808,4.458 -3.355,3.969 -3.879,3.456 -4.123,3.218 -4.385,3.124 -4.725,3.125 c -3.565,0.009 -7.13,0.007 -10.695,0 -0.165,0 -0.414,0.128 -0.438,-0.231 -0.023,-0.329 0.083,-0.403 0.404,-0.402 4.226,0.011 8.452,0.003 12.679,0.015 0.371,10e-4 0.651,-0.093 0.919,-0.356 C -1.253,1.562 -0.62,1.003 0,0.431 Z"
       style="fill:#231f20;fill-opacity:1;fill-rule:nonzero;stroke:none"
       transform="matrix(1.3268179,0,0,-1.3268179,60.427075,49.839638)"
       clip-path="url(#clipPath292-4)" />
    <path
       id="path293"
       d="m 0,0 c -0.381,-0.19 -0.624,-0.057 -0.78,0.319 -0.617,1.484 -0.364,2.909 0.36,4.263 1.069,2 2.825,3.02 5.024,3.357 C 5.203,8.031 5.803,8.055 6.408,8.042 6.698,8.036 6.97,8.01 7.041,7.665 7.106,7.345 6.887,7.206 6.64,7.088 6.169,6.861 5.751,6.56 5.406,6.166 4.75,5.42 4.531,4.57 4.816,3.607 5.039,2.856 5.192,2.097 4.974,1.32 4.593,-0.037 3.584,-0.709 2.297,-1.009 1.867,-1.109 1.65,-1.241 1.703,-1.708 1.733,-1.977 1.698,-2.253 1.695,-2.526 1.691,-2.846 1.545,-3.073 1.214,-3.062 0.911,-3.052 0.77,-2.836 0.78,-2.53 0.799,-1.913 0.817,-1.295 0.836,-0.678 0.699,-0.098 0.887,0.453 0.993,1.009 1.173,1.953 1.464,2.866 1.83,3.755 1.968,4.09 2.179,4.316 2.586,4.216 2.989,3.95 3.06,3.757 2.861,3.272 2.488,2.363 2.234,1.422 2.05,0.46 1.958,-0.025 1.98,-0.042 2.464,0.119 3.663,0.519 4.21,1.462 3.961,2.702 3.93,2.857 3.9,3.013 3.854,3.164 3.505,4.301 3.624,5.377 4.259,6.39 4.348,6.536 4.501,6.634 4.579,6.822 4.455,6.903 4.334,6.83 4.223,6.808 1.804,6.336 0.144,4.532 -0.104,2.087 -0.15,1.625 -0.019,1.179 0.147,0.746 0.25,0.477 0.345,0.19 0,0"
       style="fill:#231f20;fill-opacity:1;fill-rule:nonzero;stroke:none"
       transform="matrix(1.3268179,0,0,-1.3268179,8.3262502,12.877943)"
       clip-path="url(#clipPath294-8)" />
    <path
       id="path295"
       d="m 0,0 c -1.221,0 -2.443,-0.002 -3.664,0.001 -0.516,0.001 -0.669,0.15 -0.671,0.665 -0.005,1.107 -0.007,2.213 -0.001,3.32 0.003,0.486 0.162,0.644 0.652,0.645 2.457,0.003 4.914,0 7.371,0.004 0.231,0 0.416,-0.071 0.582,-0.228 C 4.854,3.854 5.447,3.31 6.03,2.756 6.376,2.427 6.37,2.195 6.012,1.856 5.438,1.313 4.853,0.781 4.284,0.233 4.091,0.048 3.878,-0.005 3.621,-0.003 2.414,0.004 1.207,0 0,0"
       style="fill:#231f20;fill-opacity:1;fill-rule:nonzero;stroke:none"
       transform="matrix(1.3268179,0,0,-1.3268179,41.609877,24.767161)"
       clip-path="url(#clipPath296-0)" />
    <path
       id="path297"
       d="m 0,0 c -0.904,0 -1.808,-0.003 -2.712,0.001 -0.461,0.003 -0.62,0.157 -0.623,0.621 -0.006,1.134 -0.007,2.268 10e-4,3.402 0.003,0.434 0.167,0.593 0.608,0.595 1.823,0.005 3.646,0 5.468,0.004 C 2.974,4.624 3.152,4.535 3.317,4.38 3.89,3.837 4.472,3.304 5.044,2.761 5.405,2.419 5.407,2.2 5.052,1.864 4.468,1.312 3.875,0.77 3.292,0.216 3.124,0.057 2.942,-0.006 2.712,-0.003 1.808,0.005 0.904,0 0,0"
       style="fill:#231f20;fill-opacity:1;fill-rule:nonzero;stroke:none"
       transform="matrix(1.3268179,0,0,-1.3268179,40.282133,17.789694)"
       clip-path="url(#clipPath298-4)" />
    <path
       id="path299"
       d="M 0,0 C 0.116,0.172 0.2,0.353 0.107,0.562 -0.591,2.141 -0.074,3.543 0.813,4.836 1.698,6.126 3.04,6.718 4.54,6.989 4.623,7.004 4.711,6.991 4.843,6.991 4.715,6.727 4.522,6.56 4.358,6.373 3.858,5.75 3.383,5.109 2.958,4.432 2.873,4.298 2.83,4.097 2.598,4.133 2.23,4.206 2.053,4.011 1.925,3.694 1.356,2.286 1.012,0.824 0.836,-0.679 0.595,-0.406 0.195,-0.329 0,0"
       style="fill:#79cd63;fill-opacity:1;fill-rule:nonzero;stroke:none"
       transform="matrix(1.3268179,0,0,-1.3268179,8.3262502,12.877943)"
       clip-path="url(#clipPath300-0)" />
    <path
       id="path301"
       d="m 0,0 c 0.01,-1.048 0.021,-2.097 0.029,-3.145 0.006,-0.679 0.124,-0.798 0.81,-0.8 0.201,0 0.403,-0.013 0.603,0.003 0.256,0.021 0.355,-0.062 0.354,-0.334 C 1.795,-4.538 1.689,-4.592 1.46,-4.58 1.174,-4.566 0.886,-4.579 0.598,-4.576 0.25,-4.573 0.042,-4.744 0.039,-5.089 0.027,-6.281 0.029,-7.474 0.035,-8.667 0.037,-8.991 0.226,-9.173 0.548,-9.189 0.863,-9.204 1.181,-9.212 1.496,-9.196 1.77,-9.182 1.787,-9.331 1.793,-9.544 1.799,-9.771 1.721,-9.852 1.495,-9.839 1.223,-9.824 0.949,-9.833 0.676,-9.836 0.182,-9.842 0.041,-9.978 0.032,-10.482 c -0.009,-0.488 -0.016,-0.977 0.003,-1.465 0.011,-0.282 -0.081,-0.378 -0.366,-0.369 -0.589,0.019 -1.179,0.025 -1.767,-10e-4 -0.327,-0.015 -0.409,0.087 -0.407,0.41 0.012,3.132 0.007,6.265 0.007,9.398 0,1.257 -0.557,1.813 -1.811,1.814 -1.724,0 -3.449,0.001 -5.173,-0.001 -1.06,-0.001 -1.663,-0.593 -1.664,-1.65 -0.005,-3.162 -0.008,-6.323 0.006,-9.485 0.002,-0.367 -0.077,-0.491 -0.471,-0.489 -2.932,0.018 -5.863,0.013 -8.795,0.004 -0.286,-10e-4 -0.399,0.055 -0.398,0.374 0.011,3.319 0.007,6.639 0.008,9.959 0,0.057 0.01,0.114 0.016,0.171 0.08,0.19 0.221,0.332 0.364,0.475 3.476,3.475 6.951,6.951 10.427,10.425 0.449,0.45 0.464,0.449 0.919,-0.005 C -6.366,6.38 -3.66,3.68 -0.964,0.97 -0.642,0.647 -0.202,0.441 0,0"
       style="fill:#f3f3f1;fill-opacity:1;fill-rule:nonzero;stroke:none"
       transform="matrix(1.3268179,0,0,-1.3268179,35.8223,33.474274)"
       clip-path="url(#clipPath302-9)" />
    <path
       id="path303"
       d="m 0,0 c 0,-1.579 -0.008,-3.159 0.006,-4.738 0.003,-0.323 -0.065,-0.448 -0.422,-0.445 -1.996,0.017 -3.992,0.015 -5.987,10e-4 -0.327,-0.002 -0.443,0.071 -0.442,0.426 0.015,3.145 0.008,6.289 0.01,9.434 0,0.652 0.185,0.83 0.851,0.831 1.723,10e-4 3.446,10e-4 5.169,0 0.66,-0.001 0.813,-0.151 0.814,-0.814 C 0.002,3.13 0,1.565 0,0"
       style="fill:#51c4e0;fill-opacity:1;fill-rule:nonzero;stroke:none"
       transform="matrix(1.3268179,0,0,-1.3268179,31.290418,42.939791)"
       clip-path="url(#clipPath304-1)" />
    <path
       id="path305"
       d="m 0,0 c -0.19,0.18 -0.305,0.282 -0.413,0.391 -2.858,2.853 -5.715,5.706 -8.573,8.559 -0.47,0.469 -0.629,0.471 -1.096,0.005 -4.496,-4.486 -8.991,-8.973 -13.491,-13.456 -0.212,-0.211 -0.389,-0.602 -0.802,-0.271 -0.33,0.265 -0.44,0.817 -0.21,1.169 0.086,0.13 0.2,0.244 0.311,0.356 4.446,4.495 8.893,8.99 13.339,13.485 0.394,0.398 0.79,0.795 1.172,1.205 0.155,0.168 0.249,0.207 0.435,0.019 C -6.283,8.37 -3.23,5.286 -0.178,2.201 -0.073,2.096 0.004,1.991 0.002,1.83 -0.004,1.256 0,0.682 0,0"
       style="fill:#f03a3d;fill-opacity:1;fill-rule:nonzero;stroke:none"
       transform="matrix(1.3268179,0,0,-1.3268179,35.850959,29.27835)"
       clip-path="url(#clipPath306-6)" />
    <path
       id="path307"
       d="m 0,0 c -2.371,0 -4.743,0.006 -7.114,-0.007 -0.328,-0.002 -0.456,0.07 -0.439,0.425 0.03,0.631 0.029,1.265 0,1.896 -0.016,0.36 0.093,0.457 0.453,0.455 2.759,-0.015 5.519,-0.008 8.278,-0.008 1.955,0 3.909,-0.005 5.864,0.006 C 7.335,2.768 7.559,2.701 7.767,2.485 8.074,2.164 8.408,1.866 8.742,1.572 8.884,1.448 8.898,1.365 8.754,1.234 8.348,0.869 7.947,0.498 7.554,0.119 7.395,-0.035 7.21,0.002 7.028,0.001 4.685,-0.001 2.343,0 0,0"
       style="fill:#d43a3c;fill-opacity:1;fill-rule:nonzero;stroke:none"
       transform="matrix(1.3268179,0,0,-1.3268179,47.094547,51.428637)"
       clip-path="url(#clipPath308-1)" />
    <path
       id="path309"
       d="m 0,0 c 2.025,0 4.049,-0.003 6.074,0.005 0.246,0 0.435,-0.057 0.612,-0.236 C 7.008,-0.558 7.343,-0.874 7.692,-1.172 7.871,-1.326 7.874,-1.434 7.69,-1.566 7.655,-1.59 7.622,-1.621 7.596,-1.655 6.899,-2.578 5.996,-2.825 4.837,-2.8 c -3.66,0.079 -7.322,0.034 -10.984,0.021 -0.345,-10e-4 -0.479,0.066 -0.46,0.439 0.032,0.645 0.026,1.293 0.001,1.938 -0.012,0.319 0.075,0.412 0.403,0.41 C -4.135,-0.008 -2.068,0 0,0"
       style="fill:#f47328;fill-opacity:1;fill-rule:nonzero;stroke:none"
       transform="matrix(1.3268179,0,0,-1.3268179,45.836326,40.783708)"
       clip-path="url(#clipPath310-1)" />
    <path
       id="path311"
       d="M 0,0 C 1.71,0 3.42,-0.004 5.13,0.005 5.376,0.006 5.564,-0.05 5.741,-0.23 6.062,-0.558 6.401,-0.87 6.746,-1.174 6.907,-1.316 6.972,-1.427 6.758,-1.566 6.735,-1.581 6.713,-1.602 6.696,-1.625 5.969,-2.591 5.017,-2.831 3.817,-2.795 c -2.986,0.089 -5.976,0.036 -8.965,0.021 -0.349,-0.002 -0.432,0.101 -0.418,0.43 0.026,0.617 0.029,1.236 -0.001,1.853 -0.018,0.376 0.068,0.509 0.481,0.502 C -3.391,-0.016 -1.695,0 0,0"
       style="fill:#f8e14a;fill-opacity:1;fill-rule:nonzero;stroke:none"
       transform="matrix(1.3268179,0,0,-1.3268179,44.459616,33.809956)"
       clip-path="url(#clipPath312-3)" />
    <path
       id="path313"
       d="m 0,0 c -1.394,0 -2.788,0.009 -4.182,-0.007 -0.305,-0.004 -0.39,0.083 -0.38,0.384 0.022,0.675 0.017,1.351 0.001,2.026 -0.006,0.267 0.05,0.372 0.349,0.371 2.817,-0.012 5.633,-0.007 8.45,-0.008 0.141,0 0.281,0.017 0.402,-0.099 C 5.034,2.289 5.432,1.914 5.838,1.55 5.987,1.416 5.963,1.33 5.828,1.208 5.434,0.852 5.043,0.491 4.663,0.119 4.517,-0.024 4.35,0.001 4.182,0.001 2.788,-0.001 1.394,0 0,0"
       style="fill:#a6da45;fill-opacity:1;fill-rule:nonzero;stroke:none"
       transform="matrix(1.3268179,0,0,-1.3268179,43.125637,30.502868)"
       clip-path="url(#clipPath314-0)" />
    <path
       id="path315"
       d="M 0,0 C 0,1.045 -0.01,2.031 0.003,3.017 0.013,3.775 0.059,4.532 0.072,5.29 0.076,5.525 0.143,5.628 0.391,5.618 0.763,5.603 1.137,5.605 1.509,5.617 1.738,5.625 1.802,5.526 1.807,5.311 1.829,4.281 1.865,3.251 1.894,2.221 1.897,2.094 1.918,1.959 1.813,1.856 1.206,1.256 0.67,0.584 0,0"
       style="fill:#9d444a;fill-opacity:1;fill-rule:nonzero;stroke:none"
       transform="matrix(1.3268179,0,0,-1.3268179,9.0449885,26.381375)"
       clip-path="url(#clipPath316-9)" />
    <path
       id="path317"
       d="M 0,0 C 0.664,0 1.208,-0.007 1.75,0.002 2.156,0.009 2.245,-0.37 2.483,-0.621 1.892,-0.621 1.298,-0.654 0.71,-0.608 0.421,-0.585 0.288,-0.264 0,0"
       style="fill:#e7565e;fill-opacity:1;fill-rule:nonzero;stroke:none"
       transform="matrix(1.3268179,0,0,-1.3268179,38.301326,31.74026)"
       clip-path="url(#clipPath318-4)" />
    <path
       id="path319"
       d="M 0,0 C 0.287,0.244 0.406,0.605 0.623,0.897 0.973,1.37 1.26,1.895 1.76,2.24 0.962,1.02 1.181,-0.254 1.491,-1.568 1.819,-2.964 0.867,-3.965 -0.567,-4.272 c -0.27,-0.057 -0.187,0.141 -0.165,0.268 0.195,1.103 0.459,2.188 0.911,3.217 C 0.32,-0.468 0.307,-0.206 0,0"
       style="fill:#6ca457;fill-opacity:1;fill-rule:nonzero;stroke:none"
       transform="matrix(1.3268179,0,0,-1.3268179,11.772926,7.394739)"
       clip-path="url(#clipPath320-0)" />
    <path
       id="path321"
       d="M 0,0 C 1.063,0 2.127,-0.003 3.19,0.002 3.384,0.003 3.546,-0.023 3.695,-0.172 4.04,-0.517 4.4,-0.848 4.764,-1.174 4.916,-1.31 4.988,-1.408 4.794,-1.578 4.394,-1.928 4.009,-2.295 3.625,-2.663 3.505,-2.778 3.368,-2.77 3.226,-2.77 c -2.156,0 -4.312,0.005 -6.468,-0.006 -0.282,-0.001 -0.369,0.079 -0.361,0.362 0.019,0.689 0.021,1.38 -10e-4,2.069 -0.01,0.298 0.103,0.354 0.371,0.35 C -2.156,-0.008 -1.078,0 0,0"
       style="fill:#72ca5a;fill-opacity:1;fill-rule:nonzero;stroke:none"
       transform="matrix(1.3268179,0,0,-1.3268179,41.853349,19.855152)"
       clip-path="url(#clipPath322-6)" />
    <path
       id="path323"
       d="M 0,0 C 0.733,0 1.465,-0.002 2.198,0.001 2.359,0.002 2.503,-0.011 2.631,-0.136 3.013,-0.505 3.401,-0.868 3.796,-1.224 3.943,-1.356 3.923,-1.445 3.788,-1.568 3.394,-1.924 3.005,-2.286 2.622,-2.654 2.504,-2.767 2.37,-2.773 2.225,-2.772 0.717,-2.771 -0.791,-2.766 -2.3,-2.778 c -0.269,-0.002 -0.342,0.084 -0.336,0.345 0.017,0.689 0.023,1.379 -0.002,2.068 -0.011,0.32 0.112,0.378 0.397,0.371 C -1.494,-0.012 -0.747,0 0,0"
       style="fill:#71c946;fill-opacity:1;fill-rule:nonzero;stroke:none"
       transform="matrix(1.3268179,0,0,-1.3268179,40.570847,12.876093)"
       clip-path="url(#clipPath324-6)" />
    <path
       id="path325"
       d="m 0,0 c 0,-1.049 0.003,-2.097 -0.001,-3.146 -0.002,-0.463 -0.154,-0.622 -0.618,-0.625 -1.25,-0.006 -2.499,-0.006 -3.749,0 -0.458,0.003 -0.621,0.168 -0.622,0.63 -0.005,2.097 -0.005,4.195 0,6.292 0.001,0.462 0.158,0.619 0.628,0.622 1.25,0.008 2.5,0.007 3.75,10e-4 0.47,-0.003 0.609,-0.152 0.611,-0.628 C 0.003,2.097 0,1.049 0,0"
       style="fill:#231f20;fill-opacity:1;fill-rule:nonzero;stroke:none"
       transform="matrix(1.3268179,0,0,-1.3268179,18.891038,37.60691)"
       clip-path="url(#clipPath326-1)" />
    <path
       id="path327"
       d="m 0,0 c -0.384,-0.005 -0.678,0.284 -0.682,0.669 -0.004,0.382 0.291,0.693 0.663,0.699 0.37,0.005 0.678,-0.3 0.683,-0.679 C 0.669,0.304 0.38,0.005 0,0"
       style="fill:#231f20;fill-opacity:1;fill-rule:nonzero;stroke:none"
       transform="matrix(1.3268179,0,0,-1.3268179,24.562125,43.894303)"
       clip-path="url(#clipPath328-6)" />
    <path
       id="path329"
       d="M 0,0 C -0.005,1.55 -0.007,3.101 -0.02,4.651 -0.021,4.859 0.045,4.921 0.25,4.917 0.91,4.901 1.57,4.903 2.23,4.898 2.379,4.75 2.367,4.557 2.367,4.373 2.373,3.097 2.376,1.821 2.367,0.544 2.363,-0.034 2.261,-0.128 1.687,-0.139 1.3,-0.146 0.913,-0.145 0.525,-0.139 0.34,-0.136 0.149,-0.146 0,0"
       style="fill:#cdeee6;fill-opacity:1;fill-rule:nonzero;stroke:none"
       transform="matrix(1.3268179,0,0,-1.3268179,13.519945,40.338165)"
       clip-path="url(#clipPath330-5)" />
    <path
       id="path331"
       d="M 0,0 C 0.616,0 1.232,0.013 1.848,-0.007 2.151,-0.017 2.239,0.089 2.237,0.386 2.224,1.89 2.23,3.394 2.23,4.898 3.147,4.945 3.147,4.945 3.146,4.044 3.144,2.566 3.133,1.087 3.15,-0.392 3.154,-0.721 3.058,-0.803 2.74,-0.793 1.979,-0.769 1.217,-0.759 0.458,-0.795 0.051,-0.815 -0.079,-0.68 -0.018,-0.3 -0.002,-0.202 -0.005,-0.1 0,0"
       style="fill:#b6e0ea;fill-opacity:1;fill-rule:nonzero;stroke:none"
       transform="matrix(1.3268179,0,0,-1.3268179,13.519945,40.338165)"
       clip-path="url(#clipPath332-4)" />
  </g>
</svg>
